<svg xmlns="http://www.w3.org/2000/svg" width="1024" height="788.1" viewBox="0 0 1024 788.1">
  <g id="Analytics" transform="translate(0 -101.8)">
    <path id="路径_3934" data-name="路径 3934" d="M916,368.9l-9.7,6.2-19.8,11.7L871.3,395,825,418.5l-15.2,8-15.1,8.4L775.2,447l-9.5,6.4-13.6,11-6.5,6-12.4,12.9-5.6,6.8-5.3,7.1-5,7.2-4.6,7.5-4,7.7-3.6,7.7-3.1,8-2.5,8.1-1.9,8.1-1.3,8.2-.7,8.3-.1,6.6.4,6.7.9,6.7,1.4,6.7,1.9,6.7,2.5,7.5,3,7.1,3.5,6.9,3.9,6.6,8.6,12.9,21.2,28.2,6.8,9.6,4.2,6.5,3.9,6.8,3.6,7,2.9,7.1,2.4,7.3,2,7.3,1.5,7.6.9,7.5.6,7.7.1,7.6-.4,7.7-.8,7.7-1.3,7.6-1.6,7.6-2.1,7.5L763,798l-2.9,7.2-3.3,7-3.7,6.9-4.1,6.7-4.4,6.3-4.8,6.1-5.2,5.9-5.5,5.4-5.8,5-6,4.7-6.3,4.4-6.5,4-8.4,4.6-8.7,4.1-8.9,3.6-9.2,3-9.3,2.5-9.4,2-9.5,1.4-9.7.8-9.6.3-9.6-.2-9.5-.8-9.5-1.4-9.5-2-9.4-2.4-9.1-3-9-3.4-8.8-4-8.5-4.3-8.4-4.8-8.1-5.2-7.9-5.6-7.5-5.9-7.4-6.2-7-6.6-6.8-6.9-6.4-7.1-6.1-7.4-5.8-7.6-7.3-10.6-6.7-10.9-19-33.7-13.3-22.1-12.1-17.5L398.2,697l-6-6.2-6.3-5.9-6.7-5.5-7-5.1-7.2-4.5-7.6-3.9-5.9-2.6-6.1-2.1-6.2-1.7-6.4-1.3-6.2-.6-6.1-.2-6,.2-6,.7-7.9,1.3-7.9,1.9-7.8,2.4-7.7,2.9-15.5,6.6-46.2,23.2L203.8,702l-11.7,4.7-8,2.7-7.9,2.3-8,1.7L156,715l-6.2.1-6.2-.1-6.4-.8-6.1-1.2-6.1-1.7-5.9-2.1-5.7-2.6-5.6-2.9-5.3-3.3-5.2-3.6-9.7-8.3L79,679.1l-7.6-10.3-6.3-11.1-2.6-5.9-4.2-11.9-1.6-6.2-1.4-7.8-.8-7.8-.4-7.8.2-7.9.6-7.8,1.2-7.8,1.5-7.7,2.1-7.7,2.4-7.6,2.9-7.4,3.2-7.3,3.7-7.1,4.1-7,4.3-6.6,4.8-6.5,5-6.2,7.2-7.8,7.6-7.4,8-6.9,8.4-6.5,8.8-6,9-5.6,9.3-5.1,9.6-4.7,9.8-4.3,9.9-3.8,10.2-3.5,24.2-6.6,28.3-6.6L264,435l18.7-6,9.2-3.6,8.9-4.1,8.7-4.6,6.2-3.9,6-4.1,5.7-4.5,5.4-4.8,5-5.1,4.7-5.5,4.2-5.9,3.9-6.2,2.9-6.2,2.4-6.2,1.8-6.2,1.4-6.3,1.3-8.6.7-8.7v-8.9l-.5-8.8-2.1-18.1L356.2,285l-8-41.3-2.8-18.3-.9-9-.5-9,.1-8.9.5-8.7.9-6.6,1.3-6.4,1.7-6.4,2.1-6.3,2.4-5.8,2.8-5.5,3.2-5.2,3.5-5.1,8.1-9.3,4.5-4.2,9.8-7.7,10.6-6.5,5.7-2.8,7.7-3.2,7.9-2.7,8.1-2,6.2-1.2,6.2-.7,12.4-.4,7.7.4,7.6,1,7.6,1.3,7.5,1.9,7.4,2.3,7.3,2.7,7.1,3,7,3.5,6.8,3.9,13,8.6,12,10,5.6,5.4,5.2,5.7,7.1,8.8,4.9,8.5,3.5,7.4,19.6,47.1,8.1,17.5,5.6,9.7,4.8,6.2,4.1,3.3,1.9.9,2,.4,5.2-.4,3.3-.9,8.7-3.8,5.2-2.9,7.8-4.9,8.5-6,17.4-13.5,46.7-39.5,9.8-7.5,11.5-7.1,11.8-6.7,12.1-6.3,12.3-5.9,12.4-5.3,12.7-4.7,9.6-3.1,9.7-2.7,9.7-2.2,9.8-1.8,9.9-1.3,9.9-.8,10-.2,10,.3,8,.9,7.9,1.4,7.9,1.8,7.9,2.3,7.7,2.7,7.5,3.2,7.3,3.5,7.1,3.9,6.9,4.4,6.5,4.7,6.2,5,5.9,5.4,5.5,5.8,5,6.1,4.6,6.3,4.1,6.7,3.6,6.9,3,7.2,2.4,7.5,1.9,7.8,1,6.6.6,6.5.2,6.5-.3,6.4-.8,6.5-1.5,7.9-2.1,7.9-2.7,7.8-3.3,7.8-3.7,7.6-4.2,7.3-4.7,7.3-5.2,7.2-5.4,6.8L950,340.8l-6.4,6.2-9,7.8-9.1,7.3Z" fill="#f8f8f8"/>
    <path id="路径_3935" data-name="路径 3935" d="M407.4,855.2l1-3.2,2.4-2.4,1.5-.7,1.8-.3h10v-10l.2-1.8.7-1.6,1-1.4,1.4-1,1.5-.7,1.8-.2,1.8.2,1.6.7,1.4,1,1,1.4.7,1.6.2,1.8v10h10l1.8.1,1.7.7,1.4,1,1.1,1.4.7,1.7.2,1.7-.2,1.8-.7,1.7-1.1,1.4-1.4,1-1.7.6-1.8.2h-10v10l-.2,1.8-.7,1.6-1,1.3-1.4,1.1-1.6.6-1.8.3-1.8-.3-1.5-.6-1.4-1.1-1-1.3-.7-1.6-.2-1.8v-10h-10l-2.6-.4-2.3-1.4-.8-1.1-.9-2.4Z" fill="#e8f0fd"/>
    <path id="路径_3936" data-name="路径 3936" d="M53.4,190.8l.4-1.8.7-1.5,2.3-2.4,1.5-.7,1.8-.3h10v-10l.3-1.8.7-1.5,2.4-2.4,1.5-.6,1.8-.4,1.7.4,1.5.6,2.4,2.4.7,1.5.4,1.8v10h10l1.8.2,1.5.7,1.4,1,1,1.4.7,1.5.2,1.9-.2,1.8-.7,1.5-1,1.4-1.4,1-1.5.7-1.8.2h-10v10l-.4,1.8-.7,1.5L80,213.1l-1.5.7-1.7.3-1.8-.3-1.5-.7-2.4-2.4-.7-1.5-.3-1.8v-10l-11.1.2-2.1-.4-1.4-1-1.1-1.5-.7-1.8Z" fill="#e8f0fd"/>
    <path id="路径_3937" data-name="路径 3937" d="M181.4,798.5V187.4l.3-4.7.9-4.4,1.4-4.1,1.9-3.9,2.3-3.5,2.8-3.2,3.2-2.8,3.5-2.3,3.9-1.9,4.1-1.4,4.4-.9,4.7-.3H591v81.3l.2,3.1.6,2.8,2.3,5.3,2.2,3.1,2.6,2.7,3.1,2.2,2.6,1.3,5.6,1.5,3.1.2h84.5V797.4H181.4Z" fill="#d4e7ff"/>
    <path id="路径_3938" data-name="路径 3938" d="M655.6,257.5h42.3V797.4H655.6Z" fill="#e8f0fd"/>
    <path id="路径_3939" data-name="路径 3939" d="M473,618.2l-.3,9.2-.9,7.8-1.4,7.6-2,7.4-2.5,7.3-2.9,7-3.4,6.8-3.9,6.4-4.3,6.2-4.7,5.9-5,5.5-5.4,5.2-5.6,4.8-5.9,4.4-6.1,3.9-6.3,3.6-6.6,3.2-6.7,2.7-6.9,2.3-7.1,1.8-8.2,1.2-16.3,1.1-7.8-.3-7.6-.8-7.4-1.2-7.2-1.7-7.1-2.2-6.8-2.6-6.6-3-6.4-3.5-6.1-3.8-5.8-4.2-5.6-4.5-5.2-4.9-4.9-5.2-4.6-5.5-4.2-5.8-3.8-6.1-3.5-6.3-3-6.5-2.6-6.7-2.2-7-1.8-7.1-1.2-7.3-.8-7.5-.2-7.6.2-7.1.7-7,1-6.8,1.5-6.6,1.9-6.4,2.9-8,3.5-7.6,4-7.3,4.5-6.9,5-6.7,5.5-6.2,5.9-5.7,6.4-5.4,6.7-4.9,7.1-4.4,7.5-3.8,7.8-3.4,6.3-2.2,6.6-1.8,6.7-1.5,6.9-1,7.1-.6,14.5.2,7.6.8,7.4,1.2,7.2,1.8,7.1,2.2,6.8,2.6,6.6,3,6.4,3.4,6.1,3.9,5.8,4.2,5.6,4.5,5.2,4.9,4.9,5.2,4.6,5.5,4.2,5.8,3.8,6,3.5,6.3,3,6.5,2.6,6.8,2.2,7,1.7,7.1,1.3,7.3.7,7.4Z" fill="#fff"/>
    <path id="路径_3940" data-name="路径 3940" d="M473,620.4l-.3,8.1-.9,7.8-1.4,7.6-2,7.5-2.5,7.2-2.9,7-3.4,6.8-3.9,6.4-4.3,6.3-4.7,5.8-5,5.5-5.4,5.3L355,619.3Z" fill="#cedbf0"/>
    <path id="路径_3941" data-name="路径 3941" d="M642.2,618.2l-.7,3.9-1.9,3.2-2.9,2.5-1.7.8-3.9.7H512l-3.9-.7-3.3-1.9-2.4-2.9-1.4-3.6v-4.1l.5-1.9,2-3.2,2.9-2.5,1.7-.8,3.9-.7H631.1l3.6.8,3.3,2,2.6,3,.9,1.7Z" fill="#fff"/>
    <path id="路径_3942" data-name="路径 3942" d="M500.9,531.4l.7-3.7.9-1.7,2.6-3,3.3-2,3.6-.8H631.1l3.6.8,3.3,2,2.6,3,.9,1.7.7,3.7-.7,3.8-1.9,3.3-2.9,2.5-1.7.8-3.9.7H512l-3.6-.8-1.8-.9-2.9-2.5-2.1-3.3Z" fill="#fff"/>
    <path id="路径_3943" data-name="路径 3943" d="M642.2,705l-.7,3.9-1.9,3.3-2.9,2.4-1.7.8-3.9.7H512l-3.9-.7-3.3-1.9-2.4-2.9-1.3-3.6-.2-2,.2-1.8.5-1.8,2.1-3.3,2.9-2.6,1.8-.9,3.6-.7H631.1l3.6.7,1.8.9,2.9,2.5,2.1,3.4Z" fill="#fff"/>
    <path id="路径_3944" data-name="路径 3944" d="M303.9,343.3v81.2l-.2,1.8-1.3,3.2-2.5,2.4-3.2,1.3-38.5.2-1.7-.2-3.2-1.3-2.5-2.4-1.3-3.2-.2-83,.2-1.8,1.3-3.2,2.5-2.5,3.2-1.3,38.5-.2,2.2.4,2.1,1,1.8,1.4,1.4,1.9,1,2.1Z" fill="#fff"/>
    <path id="路径_3945" data-name="路径 3945" d="M477.5,325.4V425.6l-.2,1.8-1.3,3.2-2.4,2.5-3.3,1.3-38.4.1-1.8-.1-3.2-1.3-2.5-2.5-1.3-3.2-.1-102,.1-1.7,1.3-3.2,2.5-2.5,3.2-1.3,40.3-.3,3,.7,2.2,1.9.8,1.4.8,2.3Z" fill="#fff"/>
    <path id="路径_3946" data-name="路径 3946" d="M558.8,239.7l-1.2,3.4-17.8,34.5-1.7,2.3-1.9,1.7-3.1,1.3-4.4.1-1.2-.3-3.1-2-1.6-1.8-1.1-2.2-.5-2.3.2-3.1.6-1.5,6.7-13.4-66.8,26.7-6,1.7-6.2.2-4.2-.8-4-1.3-4.1-2-75.7-43.4-1.8-1L358,236h-2l-2,.4-1.8.9-79.5,55.9-2.8,1.5-2.8.7-2.3-.2-2-.8-1.7-1.3-2.7-3.7-.7-1.6-.3-3.2.9-3.1,1.3-2,2-1.9L339.5,223l3.1-2,3.3-1.5,3.4-1,3.5-.6,3.6-.2,3.7.2,7.1,1.6,3.4,1.3,76.8,42.3,4.5,1.4,2.1.1,2.4-.4,64.5-25.6-15.1-3.9-2.7-1.9-1.4-1.9-.8-2.2-.3-2.3.3-2.3.5-1.4,1.9-2.5,1.9-1.5,3.8-1.4,3,.1,40.1,11.2,3.2,1.9,1.3,1.4,1,2.2v5.6l1.3-.8Z" fill="#fff"/>
    <path id="路径_3947" data-name="路径 3947" d="M697.9,257.5H613.3l-3.1-.2-5.6-1.5-2.5-1.3-3.2-2.2-2.6-2.7-2.2-3.1-2.3-5.3-.6-2.8-.2-3.1V154Z" fill="#fff"/>
    <path id="路径_3948" data-name="路径 3948" d="M842.6,797.4v-335l-46.8-91.3L748,462.3v335" fill="#fff"/>
    <path id="路径_3949" data-name="路径 3949" d="M813.6,797.4v-335l-32.2-63.5,14.4-27.8,46.8,91.2v335" fill="#e8f0fd"/>
    <path id="路径_3950" data-name="路径 3950" d="M937.2,207.4H924.9V195.2l-.2-2.2-.8-1.8-1.2-1.7-1.5-1.4-1.9-1-2.1-.8-2.2.3-1.9.7-1.7,1.2-1.3,1.6-1.1,1.8-.8,2.2v12.2H896l-2.2.3-1.8.8-1.7,1.2-1.4,1.5-1,1.9-.8,2.1.3,2.2.7,1.9,1.2,1.6,1.6,1.4,1.8,1.1,2.2.7h12.2v12.3l.3,2.1.8,1.9,1.2,1.7,1.5,1.4,1.8,1,2.2.8,2.2-.3,1.9-.7,1.6-1.2,1.4-1.6,1.1-1.8.7-2.2V224.2h12.3l2.1-.3,1.9-.8,1.7-1.2,1.3-1.5,1.1-1.9.8-2.1-.3-2.8-.8-2.1-1.1-1.7-1.6-1.3-1.8-.8Z" fill="#141749"/>
    <path id="路径_3951" data-name="路径 3951" d="M15.6,482.4H27.8v12.2l.3,2.2.8,1.9,1.2,1.6,1.5,1.4,1.8,1.1,2.2.7,2.2-.3,1.9-.7,1.6-1.2,1.4-1.6,1.1-1.8.7-2.2V483.5H56.8l2.1-.3,1.9-.7,1.7-1.2,1.3-1.6,1.1-1.8.8-2.2-.8-2.2-2.4-3.9-2.9-2.2-2.8-.6H44.5V454.6l-.3-2.2-.7-1.9-1.2-1.7-1.6-1.3-1.8-1.1-2.2-.7-2.1.2-1.9.8L31,447.9l-1.3,1.5-1.1,1.9-.8,2.1v12.3H15.6l-2.2.3-1.9.7-1.6,1.2-1.4,1.6-1.1,1.8-.7,2.2,1.8,4.3,1.4,1.8,1.6,1.5,2.6,1.1Z" fill="#141749"/>
    <path id="路径_3952" data-name="路径 3952" d="M1012.9,787.4H978.4l-2.5.2-2.2.6-1.8.9-1.6,1.3L969,792l-.9,1.8-.6,2.2-.3,2.5.3,2.5.6,2.1.9,1.9,1.3,1.6,1.6,1.2,1.8,1,2.2.6,2.5.2h34.5l2.5-.2,2.1-.6,1.9-1,1.5-1.2,1.3-1.6,1-1.9.6-2.1.2-2.5-.2-2.5-.6-2.2-1-1.8-1.3-1.6-1.5-1.3-1.9-.9-2.1-.6Z" fill="#141749"/>
    <path id="路径_3953" data-name="路径 3953" d="M906,787.4H853.7V461.1l-1.1-2.1v-1.1l-48.9-93.1-1.3-1.4-1.6-1.2-3.6-1.2-2.1-.2-3.9.6-1.9.8-1.8,1.2-1.5,1.4-1.3,1.8L738,457.9l-.2,1.9-.9,2.5v325H709V257.5l-.2-2.4-.7-1.9-1-1.3-4.2-3.7-104.1-102-3.5-2.5-3.2-.8H215.9l-4.6.3-4.4.6-4.2,1.1-4.1,1.5-3.9,1.9-3.6,2.3-3.4,2.5-3.2,2.9-2.9,3.1-2.5,3.4-2.3,3.7-1.9,3.9-1.5,4.1-1.1,4.2-.6,4.4-.3,4.6v600H11.1l-2.5.2-2.1.6-1.9.9-1.5,1.3L1.8,792l-1,1.8L.2,796,0,798.5.2,801l.6,2.1,1,1.9,1.3,1.6,1.5,1.2,1.9,1,2.1.6,2.5.2H278.3l2.5-.2,2.1-.6,1.9-1,1.5-1.2,1.3-1.6,1-1.9.6-2.1.2-2.5-.2-2.5-.6-2.2-1-1.8-1.3-1.6-1.5-1.3-1.9-.9-2.1-.6-2.5-.2H192.6v-600l.2-3.1,1.5-5.5,1.3-2.6,2.2-3.1,2.7-2.7,3.1-2.2,2.6-1.3,5.5-1.5,3.1-.2H579.9v70.1l.3,4.7.9,4.4,1.4,4.1,1.9,3.9,2.3,3.5,2.8,3.2,3.2,2.8,3.5,2.3,3.9,1.9,4.1,1.4,4.4.9,4.7.3h73.5V786.2H377.3l-2.5.3-2.1.6-1.9.9-1.5,1.3-1.3,1.6-1,1.8-.6,2.2-.2,2.5.2,2.5.6,2.1,1,1.9,1.3,1.5,1.5,1.3,1.9,1,2.1.6,2.5.2H906l2.5-.2,2.2-.6,1.8-1,1.6-1.3,1.3-1.5.9-1.9.6-2.1.2-2.5-.2-2.2-.5-1.8-2.1-3-2.9-1.9-2.6-.9Zm-292.7-541-2.5-.2-2.2-.6-1.8-1-1.6-1.2-1.3-1.6-.9-1.9-.6-2.1-.2-2.5V179.6l69,66.8ZM759.1,473.5h72.3V726.1H759.1Zm0,274.9h72.3v39H759.1Zm36.7-352.8,29,55.6H766.9Z" fill="#141749"/>
    <path id="路径_3954" data-name="路径 3954" d="M248.2,618.2l.3,7.6.7,7.5,1.3,7.3,1.7,7.1,2.2,7,2.6,6.7,3.1,6.5,3.4,6.3,3.9,6.1,4.2,5.8,4.5,5.5,4.9,5.2,5.3,4.9,5.5,4.5,5.8,4.2,6.2,3.8,6.3,3.5,6.6,3,6.9,2.6,7.1,2.2,7.2,1.7,7.3,1.2,7.6.8,7.8.3,7-.3,6.9-.6,6.8-1.1,6.7-1.4,6.7-1.9,6.4-2.3,6.3-2.6,6.2-3,6-3.4,5.8-3.8,5.5-4.1,5.4-4.5L354,618.2V506.9l-7.1.6-6.9,1-6.7,1.5-6.6,1.8-6.4,2.3-7.8,3.3-7.4,3.8-7.1,4.4-6.7,4.9-6.4,5.4-5.9,5.7-5.5,6.2-5,6.7-4.6,6.9-4,7.3-3.4,7.6-3,8-1.8,6.4-1.5,6.7-1.1,6.7-.6,7Z" fill="#141749"/>
    <path id="路径_3955" data-name="路径 3955" d="M381.8,434.5l3.4-.6,2.9-2L390,429l.7-3.4V278.7l-.7-3.4-1.9-2.9-2.9-2-3.4-.6-38.6.1-3.2,1.3-1.3,1.2-1.1,1.3-1.3,3.2-.2,148.7.6,3.4,2,2.9,2.9,2,3.4.6Z" fill="#141749"/>
    <path id="路径_3956" data-name="路径 3956" d="M555.4,434.5l3.4-.6,2.9-2,2-2.9.6-3.4V306.5l-.6-3.4-2-2.9-1.3-1.1-3.2-1.3-38.5-.2-3.5.7-2.9,1.9-1.9,2.9-.6,3.4v118l.6,3.4,1.9,3,1.4,1.1,3.2,1.3,38.5.1Z" fill="#141749"/>
  </g>
</svg>
