<svg xmlns="http://www.w3.org/2000/svg" width="1024" height="793.5" viewBox="0 0 1024 793.5">
  <g id="Revenue" transform="translate(-0.5 -98.1)">
    <path id="路径_4060" data-name="路径 4060" d="M928.8,875l-6.3,3-6.4,2.4-6.5,1.8-6.5,1.2-6.7.7-6.7.1-6.7-.3-6.8-.8-6.7-1.3-13.4-3.7-6.7-2.5-8.7-3.7-8.6-4.3-8.3-4.9-8-5.2-7.7-5.6-7.3-5.8-8.9-7.9-19-18.6-49.4-51.9-10-10-16.1-15.1L685,732.5l-7.8-5.5-8.1-5-8.3-4.6-8.5-4.2-8.8-3.7-9-3.2-9.1-2.9-9.2-2.4-9.4-1.9-9.4-1.5-9.5-1.1-9.6-.6-9.6-.1-9.5.3-9.5.7-9.5,1.2-9.5,1.6-9.3,2.1-9.1,2.5-9,3-8.9,3.4-8.7,3.9-8.4,4.3-8.2,4.8-9.6,6.2-9.1,6.5-8.9,7.1-8.5,7.4-16.4,15.8L404.8,779,370,817.1l-7.9,8.3-16.5,16-8.7,7.6-8.9,7.2-9.2,6.7-7.1,4.7-7.2,4.4-14.9,7.6-7.7,3.2-7.9,2.7-8.1,2.2-8.3,1.8-8.1,1.2-8,.7-8.1.2-8-.4-8-.8-8-1.4-7.8-1.7-7.8-2.3-7.6-2.7-7.5-3.1-7.2-3.6-7.2-3.9-6.9-4.4-6.6-4.7-6.3-5-6.1-5.5-5.8-5.8-5.4-6-5.1-6.4-4.7-6.8-5.4-8.5-4.8-8.8-4.2-9.1-3.6-9.3-3.1-9.6-2.6-9.7-2-9.9-1.5-10L89.3,742l-.4-10.1.1-10.2.7-10.2,1.1-10.2,1.7-10.1,2.2-10,2.7-9.9,3.3-9.5,3.8-9.4,4.3-9.1,4.7-9,5-8.8,5.5-8.6,5.8-8.3,6.1-8.1L149.2,585l14.4-14.3,7.6-6.8,15.9-12.6,18.2-12.4L236,518.7l10-7.1,9.3-7.4,6-5.2,5.5-5.3,5.2-5.5,4.7-5.9,4.1-6.1,3.6-6.3,2.2-5,1.9-5.1,1.5-5.4,1.1-5.7.6-6,.1-5.8-.3-5.6-.7-5.4-1.5-7.2-2.1-7-2.5-6.8-6.2-13.3-20.3-36.2-4.9-10.2-5-11.2-4.6-11.5-4.2-11.7L235.8,299l-3.4-12-2.9-12.1L227,262.8l-2.1-12.2-2.7-22.3-.7-10.1V204.8l1.3-13,1.2-6.4,1.6-6.2,2-6.1,2.6-5.9,3.1-5.7,3.1-4.7,3.4-4.4,3.8-4,4.1-3.7,4.3-3.3,4.6-3.1,4.8-2.7,5.1-2.4,6.9-2.6,7.3-2.1,7.5-1.5,7.6-.9,7.7-.3,7.8.2,7.8.8,7.6,1.4,7.6,1.9,7.4,2.5,7.1,3.1,6.9,3.6,7.3,4.6,7,5.1,6.5,5.4,6.2,5.9,5.8,6.2,5.6,6.5,5.2,6.8,4.9,7.1,6,9.8,5.6,10.1,5,10.5,4.7,10.6,4.2,10.8,3.8,10.8,8.2,24.8,5.3,13.1,5.4,10,6.6,9.3,3.8,4.4,4,4.1,4.4,3.7,4.6,3.3,3.7,2.1,7.8,3.2,4.1,1,4.5.6,4.5.2,4.4-.3,4.5-.6,5.9-1.5,5.7-2.1,5.6-2.8,5.3-3.3,5-3.7,4.7-4.3,5-5.5,4.5-5.9,4.2-6.3,3.7-6.5,6.8-13.8,14.1-31.9,5.1-10.2,8.5-14.4,9.1-14.4,12.9-18.5,6.8-8.9,7.3-8.7,7.5-8.4,8-8,8.6-7.6,8.9-7.1,9.3-6.6,7.2-4.6,14.9-8.2,7.7-3.6,7.9-3.2,8-2.8,8-2.4,8.2-1.9,8.3-1.5,8.4-1.1,8.5-.5,8.5-.1,6.9.4,13.6,1.9,13.3,3.4,12.9,4.8,12.2,6.2,11.4,7.4,10.5,8.6,4.8,4.7,4.4,5,4.2,5.3,3.8,5.6,3.3,5.7,3,6,2.6,6.3,2.1,6.4,1.7,6.4,1.2,6.5.8,6.5.4,6.5-.1,8.2-.6,8.2-1.1,8.2-1.6,8.2-2.1,8.1-2.6,8-2.9,7.9-3.4,7.9-4.9,10.3-5.5,9.9-5.9,9.7-12.9,18.4-17.5,22-32.2,38.6-13.5,17.6-12.5,18.5-5.7,9.7-5.3,10.1-3.6,7.8-6,15.7-2.4,8.1-2,8.2-1.4,8.1-1,8.2-.5,8.1.1,8.2.7,8.1,1.3,8,2,8.1,4,6.6,4.5,6.1,4.8,5.5,5.1,5.2,5.6,4.9,6,4.8,9.4,6.7L809.2,589l15.6,11.2,42,34,24,20.7,11.9,10.8,11.5,11.2L925,688.2l7,7.8,12.3,15.4,5.6,7.9,4.8,7.8,4.2,7.7,3.6,8.1,3,8.4L968,760l1.9,8.8,1.3,8.9.7,9,.1,6.8-.3,6.6-1.5,13.1-1.4,6.5-1.7,6.2L965,832l-2.4,5.9-2.9,5.7-3.2,5.4-3.6,5.2-4,4.8-4.4,4.6-4.7,4.1-5.3,3.8Z" fill="#f8f8f8"/>
    <path id="路径_4061" data-name="路径 4061" d="M75.1,222.8l-.2,1.4-1.1,2.6-1.5,1.5-1.8,1.2-2.1.8-2.2.3L55,229.5l-1.2,12.6-.5,1.3-2.1,2.8-1.9,1.2-2.1.7-2.2.3-1.4-.2L41,247.1l-1.5-1.5-1.2-1.8-.8-2.1-.3-2.2,1.1-11.1-12.5-1.3-2.6-1.2-1.5-1.4-1.2-1.9-.8-2.1-.3-2.2.2-1.4,1.1-2.6,1.5-1.5,1.8-1.2,2.1-.8,2.2-.3,11.2,1.2,1.2-12.6.5-1.3,2.1-2.8,1.9-1.2,2.1-.8,2.2-.3,1.4.2,2.6,1.2,1.5,1.4,1.2,1.9.8,2,.3,2.2-1.1,11.2,12.9,1.3,2.9,1.1,1.2,1,1.6,2.3.5,2.8Z" fill="#e8f0fd"/>
    <path id="路径_4062" data-name="路径 4062" d="M495.8,853.9l-.2,1.4-1.1,2.6-1.5,1.5-1.8,1.2-2.1.8-2.2.3H474.7v12.2l-.6,2.8-2.2,2.8-1.9,1.2-2,.7-2.2.3-2.2-.3-1.8-.8-1.6-1.3-1.2-1.6-.7-2.2-.3-2.7V860.6H445.7l-2.8-.6-2.7-2.2-1.2-1.9-.8-2-.3-2.2.3-2.2.8-1.8,1.3-1.6,1.7-1.2,2.1-.7,2.7-.3h12.3V831.6l.6-2.8,2.1-2.7,1.9-1.2,2.1-.8,2.2-.3,1.4.2,2.6,1.1,1.5,1.5,1.2,1.8.8,2.1.3,2.2V845H488l2.1.8L492,847l1.6,1.6,1.2,1.7.7,1.9Z" fill="#e8f0fd"/>
    <path id="路径_4063" data-name="路径 4063" d="M875.4,505.5l.4,4.5-.1,4.3-.8,4.1-1.3,4-1.9,3.7-2.3,3.3-2.8,3.1-3.2,2.5-3.5,2.1-5.9,2.1-6.5.8H833.1V483.2l16.7.2,3.3.6,6.1,2.1,3.8,2.1,3.3,2.6,3,3.1,3.6,5.3Z" fill="#fff"/>
    <path id="路径_4064" data-name="路径 4064" d="M744,340.8v47.8H328.9l-4.1-.2-7.9-1.6-7.4-3.1-6.6-4.5-3-2.8-3.1-3.6-2.8-4.1-2.3-4.4-1.8-4.7-1.4-4.9-.8-5V343l.8-5.5,1.5-5.2,1.9-4.8,2.5-4.5,2.9-4.2,3.3-3.6,3.8-3.3,4-2.7,4.5-2.2,7.1-2.2,7.7-.8H710.2l3.7.4,7.1,1.9,6.4,3.3,5.6,4.5,3.2,3.5,2.7,4,2.2,4.4,2.1,7Z" fill="#fff"/>
    <path id="路径_4065" data-name="路径 4065" d="M598.2,153.8l10,352.8-.8,6-1,2.8-2.8,5.2-4.1,4.3-4.9,3.2-2.7,1-2.9.7-3.1.2-208.1,5.6-3.1-.3-5.7-1.5-2.7-1.3-4.8-3.5-2-2.1-3.1-5-1.1-2.7-.6-2.9L344.4,160.5l.8-6,1-2.9,2.9-5.1,4-4.4L358,139l2.8-1,2.8-.7,3.1-.2,208.1-5.6,3.1.2,5.7,1.6,2.7,1.3,4.8,3.5,2,2.1,3.2,4.9,1,2.8.7,2.8Z" fill="#d4e7ff"/>
    <path id="路径_4066" data-name="路径 4066" d="M598.2,153.8l10,352.8-.2,3.1-1.6,5.7-2.8,5.2-4.1,4.3-4.9,3.2-2.7,1-2.9.7-25.3,1.3,3-.2,2.9-.7,2.7-1,5-3.2,2.1-2,3.5-4.7,1.3-2.7,1.6-5.8.2-3.1L575.8,151.9l-.7-2.9-1-2.8-3.2-4.9-2-2.1-4.8-3.5-2.7-1.3-5.7-1.6-3.1-.2,22.3-1.1,3,.2,5.8,1.6,2.7,1.3,4.8,3.5,3.7,4.5,2.5,5.3.6,2.8.3,3.1Z" fill="#e8f0fd"/>
    <path id="路径_4067" data-name="路径 4067" d="M509.2,417.6l-.3,4.1-.8,3.9-1.3,3.7-1.8,3.5-2.1,3.1-2.5,2.9-2.9,2.6-3.2,2.1-3.5,1.8-3.7,1.2-3.9.8-4.1.3-4.1-.3-3.9-.8-3.7-1.2-3.5-1.8-3.1-2.1-2.9-2.6-2.6-2.9-2.1-3.1-1.8-3.5-1.3-3.7-.8-3.9-.2-4.1.2-4.2.8-3.8,1.3-3.7,1.8-3.5,2.1-3.2,2.6-2.9,2.9-2.5,3.1-2.2,3.5-1.7,3.7-1.3,3.9-.8,4.1-.3,4.1.3,3.9.8,3.7,1.3,3.5,1.7,3.2,2.2,2.9,2.5,2.5,2.9,2.1,3.2,1.8,3.5,1.3,3.7.8,3.8Z" fill="#e8f0fd"/>
    <path id="路径_4068" data-name="路径 4068" d="M503.6,250.6l-.3,4.1-.8,3.9-1.3,3.7-1.7,3.5-2.2,3.2-2.5,2.9-2.9,2.5-3.2,2.1-3.5,1.8-3.6,1.3-3.9.8-4.2.3-4.1-.3-3.9-.8-3.7-1.3-3.4-1.8-3.2-2.1-2.9-2.5-2.6-2.9-2.1-3.2-1.7-3.5-1.3-3.7-.8-3.9-.3-4.1.3-4.1.8-3.9,1.3-3.7,1.7-3.5,2.1-3.1,2.6-2.9,2.9-2.6,3.2-2.1,3.4-1.8,3.7-1.3,3.9-.8,4.1-.2,4.2.2,3.9.8,3.6,1.3,3.5,1.8,3.2,2.1,2.9,2.6,2.5,2.9,2.2,3.1,1.7,3.5,1.3,3.7.8,3.9Z" fill="#e8f0fd"/>
    <path id="路径_4069" data-name="路径 4069" d="M821.9,337.4,630.5,634.6l-1.9,2.6-2.1,2.3-2.3,1.8-2.6,1.5-5.5,1.8-5.7.4-5.8-1.1-5.3-2.6L424.6,528.9l-2.7-1.9-2.2-2.1-1.8-2.3-1.5-2.6-1.8-5.6-.4-2.9.3-6.1,1.9-5.9,1.5-2.9L609.3,199.4l1.9-2.6,2.1-2.3,2.3-1.8,2.6-1.5,2.7-1.1,5.8-1.1h3.1l6,1.1,2.9,1.1,2.9,1.5L816.4,305.2l2.3,2.1,3.8,4.8,1.5,2.7,1.8,5.7.4,2.9-.4,5.9-.9,2.8-1.2,2.7Z" fill="#d4e7ff"/>
    <path id="路径_4070" data-name="路径 4070" d="M821.9,337.4,628.6,637.2l-2.1,2.3-2.3,1.8-5.2,2.6-5.7,1.1-5.8-.4-5.6-1.8-2.6-1.5-18.9-12.2,2.7,1.4,5.6,1.7,2.9.3,3.9-.1,3.7-.8,3.6-1.5,2.5-1.4,4.4-3.9,1.9-2.4L803,325.2l1.5-2.8,1.7-5.5.3-2.9-.2-3.9-.8-3.7-1.4-3.6-1.4-2.5-3.9-4.4-2.5-1.9,21.6,14.1,2.3,2.1,1.9,2.3,1.6,2.6,2,5.5.4,2.9v2.8l-.4,3-.8,2.8-1.2,2.7Z" fill="#e8f0fd"/>
    <path id="路径_4071" data-name="路径 4071" d="M604.9,487.7l-.3,4.1-.8,3.9-1.3,3.7-1.7,3.5-2.2,3.1-2.5,2.9-2.9,2.6-3.2,2.1-3.5,1.8-3.7,1.3-3.8.8-4.2.2-4.1-.2-3.9-.8-3.7-1.3-3.5-1.8-3.1-2.1-2.9-2.6L551,506l-2.1-3.1-1.8-3.5-1.2-3.7-.8-3.9-.3-4.1.3-4.1.8-3.9,1.2-3.7,1.8-3.5,2.1-3.2,2.6-2.9,2.9-2.5,3.1-2.1,3.5-1.8,3.7-1.3,3.9-.8,4.1-.3,4.2.3,3.8.8,3.7,1.3,3.5,1.8,3.2,2.1,2.9,2.5,2.5,2.9,2.2,3.2,1.7,3.5,1.3,3.7.8,3.9Z" fill="#e8f0fd"/>
    <path id="路径_4072" data-name="路径 4072" d="M695,347.5l-.2,4.1-.8,3.9-1.3,3.6-1.8,3.5-2.1,3.2-2.6,2.9-2.9,2.5-3.1,2.2-3.5,1.7-3.7,1.3-3.9.8-4.1.3-4.1-.3-3.9-.8-3.7-1.3-3.5-1.7-3.2-2.2-2.9-2.5-2.5-2.9-2.1-3.2-1.8-3.5-1.3-3.6-.8-3.9-.3-4.1.3-4.2.8-3.9,1.3-3.6,1.8-3.5,2.1-3.2,2.5-2.9,2.9-2.5,3.2-2.2,3.5-1.7,3.7-1.3,3.9-.8,4.1-.3,4.1.3,3.9.8,3.7,1.3,3.5,1.7,3.1,2.2,2.9,2.5,2.6,2.9,2.1,3.2,1.8,3.5,1.3,3.6.8,3.9Z" fill="#e8f0fd"/>
    <path id="路径_4073" data-name="路径 4073" d="M831.9,426.5V762.6l-.8,8.2-.9,3.9-1.9,5.5-2.2,4.9-2.4,4.5-7.3,10.9H348.9l-8.3-.3-7.3-.6-6.5-.9-5.6-1.2-5.8-1.7-5-1.9-4.2-2.1-3.6-2.3-3.5-2.8-2.8-2.9-2.4-3.1-1.8-3.3-1.5-3.4-1-3.6-.6-3.8-.2-418,.8,5,1.4,4.9,1.8,4.7,2.3,4.4,2.8,4.1,3.1,3.6,3.2,2.8,6.9,4.5,7.7,3.2,8,1.6,4.3.2h463l5.2.6,5,1.2,4.6,1.8,4.4,2.3,4,2.8,3.6,3.2,3.2,3.7,2.7,4.1,2.2,4.4,1.2,3.5,1.5,7.4.2,4Z" fill="#d4e7ff"/>
    <path id="路径_4074" data-name="路径 4074" d="M831.9,426.5V762.6l-.6,7.5-.9,3.5-2.8,6.9-4.1,6.2-5.4,5.3-2.9,2.2-6.6,3.5-3.5,1.2-7.2,1.4-47.2.2,7.4-.7,7.1-2.1,6.5-3.5,5.8-4.7,4.8-5.8,3.4-6.6,2.1-7,.7-7.5-.1-339.9-1.4-7.3-2.8-6.8-4.1-6.2-2.6-2.8-5.8-4.7-6.5-3.5-7.1-2.1-7.4-.7,47.2.2,3.7.5,7,2.1,6.6,3.5,2.9,2.2,2.9,2.5,4.7,5.8,1.9,3.2,2.8,6.8,1.4,7.3Z" fill="#e8f0fd"/>
    <g id="组_3622" data-name="组 3622">
      <path id="路径_4075" data-name="路径 4075" d="M413.4,688l-.8,14.6-1,7.2-3,14.3L404,738l-2.8,6.8-4.2,8.8-4.7,8.5-5.3,8.3-4.3,5.9L378,782l-4.9,5.4-5.3,5.2-3.2,2.9-6.8,4.9-18.3-.2-7.3-.6-6.5-.9-5.6-1.2-5.8-1.7-4.9-1.9-4.3-2.2-3.6-2.3-3.5-2.7-2.8-3-2.4-3-1.8-3.3-1.5-3.5-1-3.6-.6-3.8-.2-3.9V538.9l8,1.3,7.9,1.8,7.6,2.3,7.5,2.6,7.4,3.1,7.1,3.5,6.9,3.9,6.7,4.2,6.5,4.7,6.2,4.9,5.9,5.4,5.8,5.7,6.7,7.5,6.1,7.7,5.5,7.9,5,8.3,4.4,8.5,3.8,8.8,3.3,9,2.7,9.2,2,9.4,1.5,9.6.9,9.8Z" fill="rgba(206,219,240,0.3)"/>
    </g>
    <path id="路径_4076" data-name="路径 4076" d="M875.4,512.2V625.7l-.3,4-.8,3.8-1.2,3.7-1.7,3.5-2.2,3.3-2.6,3-3,2.6-3.3,2.1-3.5,1.8-3.7,1.2-3.8.8-4,.2H693.9l-3.5-.2-3.4-.6-3.3-1.1-3.2-1.6-2.9-1.9-2.7-2.3-2.3-2.7-1.9-2.9-1.5-3.1-1.1-3.3-.7-3.4-.2-3.6V568.9l.3-3.6.7-3.4,1.2-3.3,1.6-3.1,1.9-2.8,2.2-2.5,2.6-2.3,2.8-1.9,3.1-1.6,3.2-1.1,3.5-.8,3.6-.3H846.4l4.2-.8,3.8-1.1,3.6-1.5,3.3-1.9,3.1-2.2,2.8-2.5,2.3-2.8,2.1-3,1.6-3.3,1.2-3.4.7-3.6Z" fill="#d4e7ff"/>
    <path id="路径_4077" data-name="路径 4077" d="M875.4,512.2V625.7l-.3,4-.8,3.8-1.2,3.7-1.7,3.5-2.2,3.3-2.6,3-3,2.6-3.3,2.1-3.5,1.8-3.7,1.2-3.8.8-4,.2h-30l4-.2,3.8-.8,3.7-1.3,3.5-1.7,3.2-2.1,3-2.7,2.7-2.9,2.1-3.3,1.7-3.5,1.3-3.7.7-3.8.3-4V541.1l5.3-.5,3.9-1,3.5-1.3,3.3-1.7,3.1-2.1,2.8-2.4,2.3-2.7,2.1-3,1.6-3.3,1.1-3.4.8-3.6Z" fill="#e8f0fd"/>
    <path id="路径_4078" data-name="路径 4078" d="M380.1,686.9l-.5,7.7-.8,7.6-1.4,7.4-1.9,7.3-2.3,7.2-2.8,7-3.2,6.8-3.7,6.6-4.1,6.3-4.5,6.1-5,5.7-5.3,5.6-5.7,5.1-6,4.7-6.2,4.3-6.5,3.8-6.8,3.5-6.9,2.9-7,2.5-7.3,2.1-7.4,1.6-7.5,1.1-7.6.6-7.6.1-8-.5-7.7-.9-7.5-1.4-7.4-1.9-7.2-2.4-6.9-2.8-6.7-3.2-6.5-3.6-6.3-4.1-5.9-4.4-5.6-4.8-5.3-5.1-5-5.5-4.6-5.7-4.2-6-3.9-6.4-3.5-6.5-3-6.8-2.6-7-2.2-7.3-1.6-7.4-1.2-7.5-.6-7.8-.2-7.9.4-7.9,1-7.8,1.4-7.5,1.9-7.3,2.4-7.2,2.8-7,3.2-6.7,3.6-6.5,4.1-6.2,4.4-5.9,4.8-5.7,5.1-5.3,5.5-5,5.7-4.6,6-4.2,6.4-3.9,6.5-3.5,6.8-3,7-2.6,7.3-2.1,7.4-1.7,7.5-1.1,7.8-.7,7.9-.1,8.1.4,7.8.9,7.7,1.4,7.4,1.9,7.3,2.4,7.1,2.8,6.7,3.2,6.6,3.7,6.3,4,6,4.4L342,600l5.4,5.1,5,5.5,4.6,5.7,4.3,6,3.9,6.4,3.4,6.5,3.1,6.8,2.6,7,2.1,7.3,1.7,7.4,1.2,7.5.6,7.8Z" fill="#fff"/>
    <path id="路径_4079" data-name="路径 4079" d="M380.1,686.9l-.5,8.1-.9,7.8-1.4,7.6-1.9,7.4-2.4,7.3-2.8,7-3.2,6.7-3.7,6.5-4.1,6.2-4.4,5.9L350,763l-5.2,5.3-5.4,5-5.8,4.5-6.1,4.2-6.4,3.9-6.6,3.4-6.9,2.9-7.1,2.6-7.4,2.1-7.4,1.6-7.7,1.2-7.9.6-8,.2-16.7-1.2,8.3-1.3,8-1.9,7.8-2.4,7.5-3.1,7.4-3.5,6.9-4.1,6.7-4.5,6.3-4.9,6-5.5,5.6-5.8,5.1-6.1,4.8-6.6,4.3-6.9,3.8-7.2,3.3-7.5,2.8-7.8,2.3-8,1.6-8.1,1.1-8.5.5-8.7-.2-8.7-.7-8.4-1.4-8.3-2-8-2.5-7.9-3.1-7.6-3.6-7.2-4.1-7.1-4.5-6.7-5-6.3-5.4-6-5.9-5.6-6.2-5.2-6.5-4.7-6.9-4.3-7.3-3.8-7.4-3.3L265,575l-8-2.2-8.3-1.6,8.3-1,8.4-.1,8.1.4,7.8.9,7.7,1.4,7.4,1.9,7.3,2.4,7.1,2.8,6.7,3.2,6.6,3.7,6.3,4,6,4.4L342,600l5.4,5.1,5,5.5,4.6,5.7,4.3,6,3.9,6.4,3.4,6.5,3.1,6.8,2.6,7,2.1,7.3,1.7,7.4,1.2,7.5.6,7.8Z" fill="#e8f0fd"/>
    <path id="路径_4080" data-name="路径 4080" d="M963.3,195V182.7h12.2l2.2-.3,1.9-.7,1.6-1.2,1.4-1.6,1.1-1.8.7-2.2-.3-2.1-.7-1.9-1.2-1.7-1.5-1.3-1.9-1.1-2.2-.8H964.4V153.8l-.3-2.2-.7-1.9-1.2-1.6-1.6-1.4-1.8-1.1-2.2-.7-2.2.3-1.8.7-1.7,1.2-1.4,1.6-1,1.8-.8,2.2v12.2H935.5l-2.2.3-1.9.7-1.6,1.2-1.4,1.6-1.1,1.8-.7,2.2.2,2.2.8,1.8,1.2,1.7,1.5,1.4,1.9,1,2.1.8h12.3v12.3l.3,2.1.7,1.9,1.2,1.7,1.6,1.3,1.8,1.1,2.2.8,2.7-.4,2.1-.7,1.7-1.2,1.3-1.5.8-1.8Z" fill="#141749"/>
    <path id="路径_4081" data-name="路径 4081" d="M16.1,613.5H28.3v12.2l.3,2.2.8,1.9,1.2,1.6,1.5,1.4,1.8,1.1,2.2.7,2.2-.3,1.9-.7,1.6-1.2,1.4-1.6,1.1-1.8.7-2.2V614.6H57.3l2.1-.3,1.9-.7,1.7-1.2,1.3-1.6,1.1-1.8.8-2.2-.3-2.2-.8-1.9-1.2-1.6-1.5-1.4-1.8-1.1-2.2-.7H46.1V585.6l-.3-2.1-.7-1.9-1.2-1.7-1.5-1.3-1.9-1.1-2.2-.8-3.2.8-2.5,1.1-1.8,1.3-1.4,1.7-.8,1.9-.3,2.1v12.3H16.1l-2.2.3-1.9.7-1.6,1.2L9,601.7l-1.1,1.8-.7,2.2.2,1.7.9,1.8,1.2,1.6,1.8,1.4,3,1.1Z" fill="#141749"/>
    <path id="路径_4082" data-name="路径 4082" d="M72.9,788.2H11.6l-2.5.2L7,789l-1.8,1-1.6,1.3-1.3,1.6-1,1.8-.6,2.1-.2,2.5.2,2.5.6,2.2,1,1.8,1.3,1.6,1.6,1.3,1.8.9,2.1.6,2.5.3H72.9l2.5-.3,2.1-.6,1.8-.9,1.6-1.3,1.3-1.6,1-1.8.6-2.2.2-2.5-.2-1.8L82.3,794l-2.5-3-3.3-2Z" fill="#141749"/>
    <path id="路径_4083" data-name="路径 4083" d="M1013.4,789.3H972.2l-2.5.3-2.2.6-1.8.9-1.6,1.3-1.3,1.6-.9,1.8-.6,2.1-.2,2.6.2,2.5.6,2.1.9,1.9,1.3,1.5,1.6,1.3,1.8,1,2.2.6,2.5.2h41.2l2.5-.2,2.1-.6,1.9-1,1.5-1.3,1.3-1.5,1-1.9.6-2.1.2-2.5-.2-2.1-1.3-3.6-2.5-2.8-3.2-2Z" fill="#141749"/>
    <path id="路径_4084" data-name="路径 4084" d="M885.4,503.3l-1.1-4.4-1.7-4.1-2.1-3.9-2.5-3.6-3-3.3-3.4-3-3.7-2.6-4-2.1-4.3-1.8-4.6-1.3-4.7-.8-7.2-.3V426.5l-.4-5.6-.8-5.3-1.4-4.9-1.9-4.8-2.4-4.5-2.9-4.1-3.2-3.9-3.7-3.5-4-3.2-4.3-2.7-4.6-2.3-4.9-2,23.3-35.6,2.3-4.1,1.6-4.1,1-4.3.5-4.3-.1-4.3-.7-4.3-1.1-4.2-1.7-3.9-2.2-3.8-2.7-3.5-3.2-3.1-3.7-2.8L647.2,183.8l-4-2-4.1-1.6-4.3-1.1-6.5-.6-3.3.3-6.6,1.5-5.4,2-2.5,1.5-1.2-30-.4-4.5-1-4.3-1.6-4.1-2.2-3.9-2.7-3.4-5.9-5.6-2.7-2-6-3-3.2-.9-6.5-.8-211.5,5.8-6.9.7-6.3,2.2-3.9,2.1-3.5,2.5-3.2,3L339,141l-2.3,3.7-2,4-1.4,4.1-.8,4.3-.3,4.5,3.3,130.2-11.7.3-4.8.7-4.6,1.1-4.5,1.7-4.3,2-4.1,2.4-3.8,2.8-3.6,3.2-3.3,3.5-3,3.8-2.6,4.1-2.4,4.4-1.9,4.7-1.5,4.8-1.1,5.1-.6,5.5v217l-10-1.1-10.9.3-8.4.8-8.2,1.4-8,1.9-7.9,2.4-7.5,2.9-7.4,3.4-7,3.8-6.8,4.3-6.5,4.6-6.2,5-5.8,5.5-5.5,5.8-5.1,6.1-4.8,6.4-4.3,6.7-3.9,7-3.4,7.2-3,7.5-2.6,7.8-2,7.9-1.5,8-.9,8.3-.5,8.5.1,8.2.6,7.9,1.1,7.8,1.6,7.7,2,7.5,2.5,7.3,3,7.1,3.3,6.9,3.8,6.7,4.1,6.4,4.4,6.1,4.8,5.9,5.2,5.6,5.4,5.2,5.6,4.9,6,4.6H161.9l-2.5.2-2.2.6-1.8.9-1.6,1.3-1.3,1.6-.9,1.8-.6,2.2-.2,2.5.2,2.5.6,2.1.9,1.9,1.3,1.5,1.6,1.3,1.8,1,2.2.6,2.5.2,609.5.5,105.1-.5,2.5-.2,2.1-.6,1.9-1,1.5-1.2,1.3-1.6,1-1.9.6-2.1.2-2.5-.2-2.5-.6-2.2-1-1.8-1.3-1.6-1.5-1.3-1.9-.9-2.1-.6-2.5-.2H836.4l2.5-4.1,2-4.1,1.5-4.4,1-4.5.6-4.7.2-101.7,6.4-.3,4-.6,3.9-1,7.3-3.2,6.6-4.5,5.7-5.7,4.4-6.5,1.8-3.6,1.4-3.8,1-3.8.7-4,.2-4.2V511.1Zm-40.1-8.9,3,.2,5.3,1.5,2.5,1.3,2.1,1.6,1.8,1.8,1.4,2.1,1.1,2.3.6,2.5v8.9l-.1,1.1-1.3,2-.8.3-4.5,4.4-.8.3-.3.8-1.5,1-6.2,1.2-5.6.1V493.3h3.3ZM618.2,206.1l3.5-3.2,2-1.3,2.3-1.1,3.9.2,5,2.1L811.4,316.5l1.3,1.5,1.8,3.7.4,4.1-.9,4.1-1,2-28.9,45.6H756.3l12.2-20,1-1.9.9-3.9-.1-1.9-1.1-3.6-1-1.6-3-2.7-3.2-3.5-1.4-1.9-1-2.4-.5-2.5.2-2.3.6-2.3,1.6-3.6.6-2.2.2-2.4-.5-2.5-.9-2.4-2.1-3.2-99.4-64.5-2-1-3.8-.9-1.9.1-3.6,1.1-3,2.3-2.6,3.4-1.5,1.4-3.7,1.7-2,.4-4.2-.3-5.8-2.3-2.2-.6-2.4-.2-2.5.5-2.4.9-3.3,2L533.7,376.4H505.8l96.9-150.3,6.6-5.5v-4.5ZM745.1,353l-15.6,24.5H562.6l64.5-100.2,3.9.7,3.9.2,3.9-.2,3.9-.7,3.7-.9,3.5-1.4,3.2-1.9,3-2.4,82.3,53.4-.8,6.8.1,3.4,1.2,6.7,2.4,6.4ZM407.9,377.5,403.4,215l6.3-3,5.5-4.3,4.3-5.2,1.7-2.8,2.2-5.8,98-2.3,2.9,6.3,4.3,5.5,5.2,4.3,2.9,1.7,5.8,2.2,2.2,67.9-32.2,49-1.5-5.1-1.9-4.9-3.5-4.7-1.3-1.3-5.5-3.1-2.5-.6-5-.3-3.3.2-2.7.7-2.2,1-1.8,1.4-2.3,2.7-1.8,3-1.4,3.2-3.4,11.2v2.2L447.9,333l.2-6.3.6-3.9,1.1-3.8,1.5-3.8v-3.5l-1.1-2.1-1-.7-1.1-.4-2.8.2-1.7,2-1.9,7.7L439,331.9v2.2l-8.9.1-1.8,2-.4,1.2.1,1.1,1,1.1,1,.8,1.2.4H439l.2,5.6.7,2.7,1.1,2.1,3,4.3,1.8,2.2,2.8,2.4,4.1,2.2,4.1,1.1,6.3-.5,2.9-.7,2.7-1,2.6-1.5,2.3-2.7,1.8-3,1.4-3.2,3.4-11.1v-2.3l24.4-1.1v5.6l-23.3,35.6Zm96.8-46.7-23.4,1.1,2.7-7.3,1.8-3.9,1-1.4,1.5-1.2,4.2-1.8,2.2.2,2,.6,1.9,1.1,1.7,1.4,3.3,7.8Zm-34.5,6.6-2.6,7.3-1.8,3.9-1,1.4-1.4,1-1.5.7-1.7.2-2.5-.2-2-.5-1.7-.8-1.5-1.1-2.1-3.3-.8-2.3-.5-2.9v-2.3ZM366.7,148.2l208.1-5.5,2.2.1,2.1.7,1.9,1,3,3.2,1.7,3.9.3,2.2,1.1,56.7-22.3,34.6-1.1-45.7-.2-2.2-.6-2.1-1.1-1.8-1.4-1.7-3.6-2.4-2.1-.6-4.6-.5-2.3-.6-2.2-1.1-1.9-1.5-2.4-3.6-.7-2-.5-4.2-1.3-3.6-2.4-2.9-3.3-1.9-3.9-.7-115.8,3.3-2.2.2-2,.7-1.9,1-3,3.2-1,1.9-.7,2-.9,6.4-1.8,3.6-1.3,1.5-3.3,2.1-1.9.6-4.2.4-3.6,1.3-2.9,2.5-1.1,1.5-1.4,3.6-.1,2.1,5.5,173.6H362.2l-5.6-219.2.2-2,.7-1.7,2.3-3,1.6-1.2,2.5-1.3ZM328.9,314.1h8.9l2.2,63.4-13.1-.2-4-.8-3.8-1.2-3.7-1.8-3.4-2.2-3.2-2.7-2.6-2.9-2.2-3.1-1.7-3.2L301,356l-.8-3.6-.3-9.4.3-3.8.7-3.7,1.2-3.6,1.6-3.4,2.1-3.1,2.5-2.9,2.9-2.5,3.2-2.1,3.3-1.7,3.6-1.2,3.7-.7ZM160.8,683.6l.4-6.9.7-6.6,1.2-6.5,1.6-6.3,1.9-6.2,3-7.5,3.5-7.2,4-6.8,4.6-6.6,5-6.2,5.4-5.7,5.8-5.3,6.2-4.9,6.6-4.4,6.9-3.9,7.2-3.4,7.5-2.8,6.1-1.9,6.2-1.4,6.4-1,6.6-.7,8.9-.2,7,.4,6.8.7,6.6,1.2,6.4,1.6,6.2,2,7.6,3,7.3,3.5,6.9,4,6.6,4.6,6.2,5.1,5.7,5.5,5.3,5.9L350,625l4.4,6.7,3.8,7,3.3,7.4,2.7,7.7,1.8,6.3,1.3,6.4,1,6.6.5,6.8.1,7-.3,7.8-.8,7.3-1.1,6.9-1.4,6.5-1.8,6.1-2.8,7.7-3.2,7.1-3.7,6.5-4,6.1-4.6,5.7-4.9,5.3-5.2,4.8-5.5,4.3-5.9,4-6,3.5-6.3,3-6.6,2.7-6.7,2.1-6.8,1.8-6.9,1.3-7.1.9-7,.4-7.1.1-7.1-.4-7.1-.9-7-1.2-6.8-1.7-6.8-2.1-6.6-2.5-6.5-3-6.2-3.3-5.9-3.8-5.7-4.2-5.4-4.6-5.1-5-4.7-5.4-4.4-5.9-3.8-6.1-3.5-6.6-3-7.1-2.5-7.6-1.6-6-1.2-6.4-.9-6.8-.5-7.1Zm660,79-.3,3.6-.6,3.4-1.1,3.1-1.4,3-1.9,2.8-2.1,2.4-2.4,2.3-2.8,1.9-2.9,1.6-6.5,2.1-3.6.5H336.6l6.4-4.7,5.9-4.9,5.5-5.1,5.1-5.4,4.7-5.7,4.4-5.9,3.9-6.1,3.6-6.2,3.2-6.4,2.8-6.6,3-8.5,2.4-8.5,1.7-8.7,1.2-8.8.5-8.9-.1-8.8-.7-8.9-1.3-8.8-1.6-7-1.9-6.9-2.3-6.8-2.7-6.8-3.1-6.6-3.5-6.4-3.9-6.3-4.3-6-4.7-6-5.2-5.7-6-5.9-6.4-5.4-6.6-5-7.1-4.4-7.3-4-7.5-3.4-7.8-2.9-8.1-2.4V389.7l4.5,3.1,4.7,2.5,5,1.9,5.2,1.5,5.2.8,5.5.2H795.2l3.7.3,3.4.8,3.2,1.1,3.1,1.6,2.8,1.9,2.6,2.3,2.3,2.5,1.9,2.8,1.5,3.1,1.2,3.3.7,3.4.3,3.7V528.9h-128l-3.8.1-7.2,1.4-6.9,2.8-3.1,1.9-5.8,4.7-4.8,5.8-3.4,6.6-2.1,7-.7,7.5.1,63.9,1.4,7.2,2.8,6.9,4.1,6.1,2.6,2.9,2.8,2.5,6.1,4.1,6.9,2.8,3.6.9,7.4.7H820.8Zm24.5-119.1H693.9l-3.1-.2-2.9-.9-2.7-1.4-2.4-1.9-2-2.4-1.4-2.7-.8-3-.3-3.1V567.8l.3-3.1.8-2.9,1.4-2.7,2-2.4,2.4-2,2.7-1.4,2.9-.8,3.1-.2H845.3l4.9-.3,4.4-.7,5.7-2,2.8-1.5V629l-.5,3-1.1,2.8-1.7,2.4-2.1,2.2-2.6,1.7-2.9,1.3-3.2.8Z" fill="#141749"/>
    <path id="路径_4085" data-name="路径 4085" d="M726.2,574.5l-3.1.2-5.6,1.6-2.5,1.3-3.2,2.2-2.6,2.6-2.2,3.1-1.3,2.6-1.5,5.6-.2,3.1.2,3.1,1.5,5.5L707,608l2.2,3.1,2.7,2.7L715,616l5.3,2.2,2.8.6,3.1.2,6-.8,5.2-2.2,3.2-2.2,2.6-2.7,2.2-3.1,1.3-2.6,1.5-5.5.3-3.1-.3-3.1-1.5-5.6-1.3-2.6-2.2-3.1-2.7-2.6-3.1-2.2-2.5-1.3-5.6-1.6Z" fill="#141749"/>
    <path id="路径_4086" data-name="路径 4086" d="M289.9,741.5l3.6-2.1,3.3-2.3,2.9-2.6,2.7-3,2.2-3.2,1.8-3.6,1.3-3.7.8-4.1.3-4.4-.7-7.2-2-5.8-2.8-4.8-4-4-2.5-1.8-3.9-2.3-7.7-3.3L267.6,678V638l9.6.4,5.5,1,13.9,4.2,3.1-1.2,1.3-1.1,1.2-1.6.8-1.9.3-2-.3-2.4-.7-1.8-1.9-1.8-5.5-2.2-4.2-1.2-11.2-2-7.4-.9h-3.4V610.1l-.4-2.4-1.7-1.8-1.1-.5h-2.4l-1.2.5-.9.8-1.1,2.2-.1,14.6h-3.3l-5,.9-7.8,2-2.7,1.2-5.1,3.2-5.2,4-4,4.3-3.4,6.1-1.4,4.1-.8,4.3-.2,4.4.6,6.3,1.9,6,3.1,5.5,3.9,4.1,6.4,4,4.1,1.9,8.9,3.2,11.1,3.5v39h-4.4l-6.9-1-6.7-1.4-6.6-1.9-6.5-2.4-2.5-.6-2.4-.1-2.8.9-1.2.9-1.2,1.7-.7,1.8-.3,2.1.1,2.2,1,2.2,1.6,1.6,8.4,3.3,12.3,3.3,17.7,3,.1,14.6,1.1,2.1.9.8,2.4.7,2.3-.7,1-.8,1.1-2.1V747h3.4l9.3-1.9,4.3-1.5ZM261,676.9l-5.6-1.1-7.5-2.8-3.2-1.3-4.7-2.8-1.6-1.6-1.3-1.9-.9-2.2-.6-2.4-.2-2.8.1-2.6.6-2.5.9-2.4,1.4-2.2,1.6-2,2-1.7,3.9-2.3,4.1-1.8,8.7-2.5Zm7.8,17.8,11.5,3.7,3.3,1.4,5,2.9,1.5,1.4,1,1.5,1,3.6.1,2.2-.2,3-.7,2.7-1,2.4-1.3,2.2-1.8,2.1-2.6,2.1-3.3,1.8-4.1,1.5-9.5,2.2Z" fill="#141749"/>
  </g>
</svg>
