<svg xmlns="http://www.w3.org/2000/svg" width="1024" height="736.8" viewBox="0 0 1024 736.8">
  <g id="Targeted" transform="translate(0 -151.2)">
    <path id="路径_3958" data-name="路径 3958" d="M407.4,864.7l1-3.3,2.4-2.4,1.5-.7,1.8-.3h10V848l.2-1.8.7-1.6,1-1.3,1.4-1.1,1.5-.6,1.8-.3,1.8.3,1.6.6,1.4,1.1,1,1.3.7,1.6.2,1.8v10h10l1.8.2,1.7.6,1.4,1,1.1,1.5.7,1.6.2,1.8-.2,1.7-.7,1.7-1.1,1.4-1.4,1-1.7.7-1.8.1h-10v10.1l-.2,1.8-.7,1.5-1,1.4-1.4,1-1.6.7-1.8.2-1.8-.2-1.5-.7-1.4-1-1-1.4-.7-1.5-.2-1.8V871.3h-10l-2.7-.4-2.2-1.4-.8-1.1-1-2.4Z" fill="#d4e7ff"/>
    <path id="路径_3959" data-name="路径 3959" d="M179.2,181.3l-.2,1.4-1.1,2.5-1.5,1.6-1.8,1.2-2.1.8-2.2.2H158.1v12.3l-.7,2.8-2.1,2.7-1.9,1.2-2,.8-2.2.3-2.2-.3-1.8-.8-1.6-1.3-1.2-1.7-.7-2.1-.3-2.7V187.9H129.1l-2.8-.6-2.7-2.2-1.2-1.8-.8-2.1-.3-2.2.3-2.1.8-1.9,1.3-1.5,1.7-1.2,2.1-.8,2.7-.3h12.3V159l.6-2.8,2.1-2.8,1.9-1.2,2.1-.7,2.2-.3,1.4.2,2.6,1.1,1.5,1.5,1.2,1.8.8,2.1.3,2.2v12.3h12.2l2.8.6,2.8,2.1,1.2,1.9.7,2Z" fill="#d4e7ff"/>
    <path id="路径_3960" data-name="路径 3960" d="M809.2,558.6l-14.4.2-5.8,1.6-2.7,1.4-4.7,3.7-3.7,4.7-1.4,2.7-.9,2.8-.7,3-.2,3.2v72.4l-.2,4.2-.6,4.1-1,4-1.4,3.9-1.8,3.7-2.1,3.5-2.5,3.4-2.8,3.1-6.5,5.3-3.5,2.1-3.7,1.8-3.9,1.4-4,1-4.1.6-4.2.2H695.7l-3.3.2-3,.7-2.8,1-2.7,1.3-4.7,3.7-3.7,4.7-1.4,2.7-1,2.8-.6,3.1-.2,3.2v86.8H440.8l-.3-9.5-.6-9.5-1.2-9.4-1.5-9.3-2.1-9.3-2.4-9.1-2.9-9-3.3-8.9-3.8-8.7-8.9-17.7-5.3-8.9-5.8-8.6-6.3-8.4-6.8-8-7.2-7.8-7.6-7.5-8-7.1L349.2,636l-8.8-7.7-8.5-8-8.1-8.3-7.7-8.8-7.3-9.1-6.9-9.5-6.4-9.7-6.1-10.1-5.6-10.4-5.1-10.6-4.6-10.9L270,521.7l-3.6-11.4-3.2-11.8-2.5-11.8-2-12-1.5-12.2-.9-12.5-.3-12.7.4-12.3.9-12,1.4-11.7,2-11.6,2.4-11.4,3-11.3,3.5-11,3.9-10.8,4.4-10.6,4.8-10.3,5.4-10.1,5.7-9.9,6.1-9.5,6.5-9.2,6.9-9,7.3-8.6,7.6-8.3,8-7.9,8.4-7.6,8.7-7.3,8.9-6.8,9.3-6.5,9.6-6,9.8-5.7,10.2-5.2,10.3-4.8,10.6-4.3,10.8-3.9,11.1-3.4,11.4-2.9,11.3-2.4,11.6-1.9,11.8-1.3,12-.9,12.2-.3,12.2.3,12,.9,11.8,1.3,11.6,1.9,11.4,2.4,11.3,2.9,11.1,3.4,10.8,3.9,10.6,4.3,10.4,4.8,10.1,5.2,9.9,5.7,9.5,6,9.3,6.5,9,6.8,8.7,7.3,8.3,7.6,8,7.9,7.6,8.3,7.4,8.6,6.9,9,6.5,9.2,6.1,9.5,5.7,9.9,5.3,10.1,4.9,10.3,4.3,10.6,4,10.8,3.4,11,3,11.3,2.5,11.4,1.9,11.6,1.5,11.7.9,12,.5,16.7.6,4.4,2.2,8.6,3.7,8.2,42.3,69,1.7,2.2,2.1,4.4.4,2.2.1,3.1-.6,2.8-1,2.8-1.6,2.5-2,2.2-2.4,1.9-2.7,1.4-2.9.8Z" fill="#fff"/>
    <path id="路径_3961" data-name="路径 3961" d="M809.2,558.6l-14.4.2-5.8,1.6-2.7,1.4-4.7,3.7-3.7,4.7-1.4,2.7-.9,2.8-.7,3-.2,3.2v72.4l-.2,4.2-.6,4.1-1,4-1.4,3.9-1.8,3.7-2.1,3.5-2.5,3.4-2.8,3.1-6.5,5.3-3.5,2.1-3.7,1.8-3.9,1.4-4,1-4.1.6-4.2.2H695.7l-3.3.2-3,.7-2.8,1-2.7,1.3-4.7,3.7-3.7,4.7-1.4,2.7-1,2.8-.6,3.1-.2,3.2v86.8H440.8l-.2-11.7-1-11.7-1.9-11.7-2.5-11.5-3-11.4-3.6-11.3-4.2-11.1-4.7-10.8-4.6-8.3-4.9-8-5.3-7.8-5.6-7.6-6.1-7.4-7.9-8.9-8.5-8.5-8.9-8.1-18.2-14.7-8.3-7.3-8-7.6-7.7-7.9-7.4-8.2-7-8.6-6.6-8.8-6.2-9.1-5.8-9.4-5.5-9.7-4.9-9.5-4.6-9.6-4.1-9.8-3.7-10-3.2-10.1-2.9-10.2-2.4-10.4-1.9-10.4-1.6-10.5-1.1-10.6-.6-10.6-.2-10.7.4-12.3.9-12,1.4-11.7,2-11.6,2.4-11.4,3-11.3,3.5-11,3.9-10.8,4.4-10.6,4.8-10.3,5.4-10.1,5.7-9.9,6.1-9.5,6.5-9.2,6.9-9,7.3-8.6,7.6-8.3,8-7.9,8.4-7.6,8.7-7.3,8.9-6.8,9.3-6.5,9.6-6,9.8-5.7,10.2-5.2,10.3-4.8,10.6-4.3,10.8-3.9,11.1-3.4,11.4-2.9,11.3-2.4,11.6-1.9,11.8-1.3,12-.9,12.2-.3,12.2.3,12,.9,11.8,1.3,11.6,1.9,11.4,2.4,11.3,2.9,11.1,3.4,10.8,3.9,10.6,4.3,10.4,4.8,10.1,5.2,9.9,5.7,9.5,6,9.3,6.5,9,6.8,8.7,7.3,8.3,7.6,8,7.9,7.6,8.3,7.4,8.6,6.9,9,6.5,9.2,6.1,9.5,5.7,9.9,5.3,10.1,4.9,10.3,4.3,10.6,4,10.8,3.4,11,3,11.3,2.5,11.4,1.9,11.6,1.5,11.7.9,12,.5,16.7.6,4.4,2.2,8.6,3.7,8.2,42.3,69,1.7,2.2,2.1,4.4.4,2.2.1,3.1-.6,2.8-1,2.8-1.6,2.5-2,2.2-2.4,1.9-2.7,1.4-2.9.8Z" fill="#d4e7ff"/>
    <path id="路径_3962" data-name="路径 3962" d="M809.2,558.6l-14.4.2-5.8,1.6-2.7,1.4-4.7,3.7-3.7,4.7-1.4,2.7-.9,2.8-.7,3-.2,3.2v72.4l-.2,4.2-.6,4.1-1,4-1.4,3.9-1.8,3.7-2.1,3.5-2.5,3.4-2.8,3.1-6.5,5.3-3.5,2.1-3.7,1.8-3.9,1.4-4,1-4.1.6-4.2.2H695.7l-3.4.2-3.1.6-2.9,1-2.6,1.3-4.7,3.6-3.6,4.7-1.3,2.6-1,2.9-.8,6.5v86.8H457.5l-3-.3-2.7-.7-2.6-1.1-2.4-1.5-2-1.8-1.7-2.2-1.2-2.4-.8-2.7-.5-6.8-1-3.9H602.2l3-.3,2.7-.8,2.6-1.3,2.3-1.7,2-1.9,1.7-2.4,1.2-2.5.8-2.8.4-3V696.6l.8-6.3,2.4-5.5,1.7-2.5,4.2-4.2,5.1-3,2.9-1,3-.6,3.2-.3h35.6l4.3-.2,4.1-.6,3.9-1L694,670l3.8-1.8,3.5-2.1,3.3-2.4,3.2-2.9,2.8-3.1,2.4-3.3,2.2-3.5,1.7-3.8,1.4-3.9,1-4,.6-4.1.2-4.2V558.6l.3-3.3.6-3,1-2.8,3.1-5.2,4.1-4.2,2.5-1.7,2.7-1.3,2.9-1,3-.7,14.3-.2,3.2-.3,3-.8,2.7-1.3L766,531l2.2-2.2,1.7-2.6,1.3-2.9.7-3,.1-3.1-.4-3-1-2.9L729,439.5l-3.7-8.1-2.2-8.6-.6-4.4-.4-17.4-1-12.7-1.5-12.6-2.2-12.4-2.8-12.4-3.4-12.1-3.9-12-4.6-11.7-5.1-11.6L692,292.3l-6.2-11L679,270.6l-7.3-10.3-7.8-10-8.3-9.7-8.9-9.3-7.5-7.1-8-6.9-8.3-6.7-8.6-6.4-17.7-11.9,9.7,3.3,9.4,3.7,9.3,4,9.1,4.4,9,4.8,8.7,5.2,8.4,5.5,8.3,5.8,8,6.2,7.8,6.6,7.5,6.8,16.1,16.5,8.3,9.7,7.8,10,7.3,10.3,6.8,10.7,6.2,11,5.6,11.2,5.2,11.5,4.5,11.8,4,11.9,3.3,12.2,2.8,12.3,2.2,12.5,1.5,12.6,1,12.7.5,17.3.5,4.4,2.3,8.6,3.7,8.2,43.9,71.6.9,2.7.4,2.9-.3,2.8-.7,2.8-1.2,2.7-1.7,2.5-2.1,2.1-2.4,1.9-2.7,1.4-3,.8Z" fill="#e8f0fd"/>
    <g id="组_3610" data-name="组 3610">
      <path id="路径_3963" data-name="路径 3963" d="M467.5,698.8l-.2,7.7-.6,7.7-.9,7.5-1.4,7.5-1.8,7.4-2.1,7.3-2.6,7.2-2.9,7-3.3,6.9-3.6,6.7-4.1,6.5-4.4,6.3-1.9-11.7-2.5-11.5-3-11.5-3.6-11.2-4.2-11.1-4.7-10.9-4.6-8.6-4.9-8.2-5.3-8-5.7-7.8-6-7.5-8-8.9-8.4-8.5-8.9-8.2-18.2-14.7-8.3-7.2-8-7.6-7.7-7.9-7.4-8.3-7-8.5-6.6-8.8-6.2-9.1-5.8-9.4-5.5-9.7,9.1-2.1,9.1-1.4,9.2-.8,9.3-.2,9.6.3,9.4.9,9.2,1.6,9.1,2.1,9,2.7,8.7,3.3,8.5,3.8,8.3,4.4,8,4.9,7.6,5.5,7.3,6,6.9,6.5,6.6,7,5.9,7.3,5.5,7.6,4.9,7.9,4.4,8.3,3.9,8.5,3.2,8.7,2.7,9,2.2,9.1,1.5,9.3.9,9.4Z" fill="rgba(206,219,240,0.3)"/>
    </g>
    <path id="路径_3964" data-name="路径 3964" d="M603.3,381.6l-1.4-7.3-1.9-7.1-2.4-7-2.9-6.8-3.3-6.6-3.7-6.4-13.4-18.9L564,298.1l-4.1-7.5-4.6-7.2-5.1-6.9-5.5-6.5-6-6.1-6.2-5.7-6.7-5.3-7.1-4.8-7.2-4.4-7.6-3.8-7.8-3.3-8-2.8-8.2-2.2-8.3-1.5-16.9-1.7-11.1-2.2-20.3-8.7-6.5-2.4-6.6-2-13.7-2.9-13.8-1.4-7.1-.1-13.9.8-13.8,2.4-6.8,1.8-6.6,2.1-6.5,2.6-14.3,6.3-3.2,1.1-5.6-.2-13.1-1.9-7.6-.4-7.5.1-7.7.7-7.5,1.2-7.4,1.6-7.3,2.2-7.3,2.7-7,3.1-6.8,3.5-6.5,3.9-6.2,4.4-6,4.8-5.6,5.2-5.2,5.5-4.8,5.9-3.7,5.5-4.1,5.2-4.5,4.9-3.5,3.1-17.4,13-6.1,5.4-5.6,5.9-5.3,6.3-4.7,6.6-4.2,7-3.7,7.2-3.1,7.4-2.6,7.7-1.5,5.9-1.9,11.9-.4,6v7.5l.5,7.3,1.2,7.3,1.8,7.2,2.3,7.1,2.8,6.8,3.4,6.7,3.8,6.4,4.2,6.1,3.5,4.3,3.9,4.1,4.1,3.8,4.5,3.5,4.7,2.9,4.9,2.5,6.2,2.6,12.9,4.4,19.9,5.3,11.7,1.4,11.8.8,7.9.1,8.1-.4,12.8-1.5,4.5-.2,4.4.2,4.5.7,4.3,1.4,4,2,11.2,7.6,7.9,4.8,8.7,3.9,6.7,2.1,7.1,1.6,28.6,4.6,7.1,1.4,12.7,3.6,5.8,2.2,11.2,5.5,7.1,4.4,6.9,4.8,6.6,5.3,6.3,5.7,6.1,6,5.9,6.3,10.9,13.4,7.8,10.2,2.9,3,3.4,2.6,5,1,5,.1h38.5l3.5-.7,2.5-1.5,1.5-2.7v-4.1l-1.5-5.4-3.7-8-2.3-5.8-1.9-5.9-2.5-9.1-1.8-9.1v-2.3l1.1-4.4,1.7-1.9,13.5-6.6,4.1-2.5,6-4.2,5.9-4.8,6.4-6.4,6.9-5.9,7.3-5,11.5-6.8,8.7-6.3,4.9-3.9,4.7-4.2,4.4-4.4,4-4.8,7.2-10.2,3.1-5.4,2.7-5.6,2.4-5.8,2-6,2.7-11.1.8-5,.7-10-.4-10.1Z" fill="#fff"/>
    <path id="路径_3965" data-name="路径 3965" d="M204.8,348.2l3.6,1.1,4.2-.2,2.1-.5,1.9-1,1.7-1.3,1.2-1.6,1.8-4,.5-2-.1-4.2-1.4-4-1.2-1.8-1.4-1.5-4.1-2.8-2-1.9-1.9-2.3-2.3-3.9-1.9-4.3-2.5-9.1-1.2-8.5-.5-8.5-.5-2.1-2.1-3.8-3.3-2.8-4-1.5h-4.3l-4.1,1.5-3.3,2.8-2.1,3.8-.5,2.1-.1,2.2.5,9,1.8,11,1.6,6.3,2.1,6.3,2.7,6.5,2.2,4.1,2.6,4,3,3.7,3.3,3.5,3.7,3Z" fill="#e8f0fd"/>
    <path id="路径_3966" data-name="路径 3966" d="M233.7,348.2l-1.9-.5h-3.5l-3.2,1.4-1.5,1.1-2.3,2.9-3.6,8.7-3.6,5.7-4.2,4.2-2.4,1.5-2.4,1.1-5.5,1-3.2-.1-3.3-.6-3.2-1.1-3.3-1.7-3.5-2.2-3.2-2.6-7.5-7.9-1.4-1-3.3-1.1-3.5.1-2.6.8-2.4,1.4-2.4,2.7-.6,1.5-.5,3.5.2,1.8.8,2.6,1.4,2.4,3.8,4.3,7.9,7.1,4.2,3,4.2,2.5,4.1,2,4.3,1.6,4.1,1.1,4.1.6h11.1l4.6-1.3,4.2-1.7,4-2.3,3.7-2.8,3.6-3.3,3-3.6,2.9-4,2.7-4.6,2.5-5.1,3.1-7.7.4-1.8v-1.7l-1.1-3.3-1.1-1.4-2.9-2.4Z" fill="#e8f0fd"/>
    <path id="路径_3967" data-name="路径 3967" d="M256,325.9l4.1-.1,1.7-.5,3.8-2.3,1.9-2,1.7-2.4,1.3-2.7,1.2-4.8,3.3-8,2-3.6,2.4-3,2.5-2.6,2.9-2.1,3.2-1.5,3.6-1.1,3.4-.5h3.5l3.7.5,3.5,1,3.6,1.5,3.7,2,3.3,2.4,3.3,3,4.8,5,3.5,1.9,4,.6,4-.7,3.6-2.2,1.5-1.6,1.9-3.6.6-3.9-.7-4-2.2-3.6-3.8-4.3-4.1-3.9-4.2-3.4-4.6-3.1-4.7-2.5-4.8-2.1-4.9-1.7-5-1.1-4.9-.6-5-.1-4.9.6-9.4,2.4-4.4,1.9-4.2,2.3-4,2.8-3.7,3.1-3.5,3.6-3.2,4-2.9,4.5-2.6,4.7-2.2,5-2,5.4-1.6,5.9.3,3.8.8,3.4,2,4,2.9,2.8,1.9,1Z" fill="#e8f0fd"/>
    <path id="路径_3968" data-name="路径 3968" d="M358.4,443.9l4.6-1.4,4.5-1.8,4.2-2.3,4-2.8,3.7-3.2,3.4-3.6,3.2-4,3-4.5,2.6-4.6,2.2-5,2-5.5,1.6-5.8.2-2.2-.2-2.2-1.4-4-2.5-3.3-1.5-1.3-3.5-1.5-4.4.1-2.1.5-3.7,2-2.8,2.9-.9,1.6-3.4,10.9-1.7,3.8-2.1,3.6-2.3,3-2.5,2.5-2.9,2.1-3.2,1.6-3.6,1.1-4.2.5-4.1-.1-4.1-.8-4.1-1.3-3.7-1.9-3.7-2.6-3.7-3.2-5.2-5.5-3.5-1.9-4-.6-4,.7-3.6,2.2-1.5,1.6-1.1,1.7-1.3,3.8.1,4,1.4,3.8,5.2,6,4,3.8,4.1,3.3,4.2,2.8,4.4,2.4,4.6,2.1,4.6,1.5,4.8,1.2,4.9.7,5,.2,6.4-.3Z" fill="#e8f0fd"/>
    <path id="路径_3969" data-name="路径 3969" d="M267.1,397.2l1.1-4.6,3.1-8.7,2.1-4.2,3.2-5.4,3.7-4.9,4.2-4.6,4.6-4.2,4.9-3.7,5.2-3.1,4.1-2,8.5-2.8,4.3-.8,4-.4,7.4.4,3.6.7,3.3,1.2,2.9,1.4,2.1,1.9,3.5,4.4,1.1,2.4.8,2.4.3,6.6.6,1.9,2.1,3.3,3.2,2.5,1.9.8,4.4.7,2-.2,3.7-1.5,2.9-2.7,2-3.6.5-2.2.4-3.6-.1-3.6-1.2-7-1.7-4.5-2.2-4.2-2.8-4-3.2-3.7-3.8-3.2-4.3-2.9-4.2-2.3-4.3-1.8-4.2-1.3-8.7-1.5-10.1-.2-5.2.4-6.5,1.2-6.2,1.6-6,2.2-5.9,2.7-5.6,3.1-5.4,3.6-5.1,3.9-4.8,4.4-4.5,4.7-4.1,5-3.8,5.3-3.3,5.7-3,5.8-2.4,6.1-2,6.2-1.5,6.4-.9,6.3-.4,6.3.1,6.3.5,6.3.8,6.3,1.3,6.1,1.7,6.1,2.1,6,2.5,5.8,2.9,5.6,3.2,5.5,3.7,5.3,4,4.9,4.3,4.8,4.7,4.4,6.8,5.5,1.7.6,4.4.3,3.4-.4,3.1-1.6,1.3-1.1,2.4-3.3,1.3-3.9-.2-3.9-.6-1.9-2.3-3.4-6.6-5.8-4.3-4.6-3.9-5-3.5-5.3-2.9-5.6-2.5-5.8-2-6-1.4-6.1-.9-6.1-.4-6.2.2-6Z" fill="#e8f0fd"/>
    <path id="路径_3970" data-name="路径 3970" d="M405.2,318.2l4.2,3.2,2.4,1.2,5.9,4.5,2.3,2.1,1.8,2.3,1.6,4.1.3,4.6-.8,4.6-1.9,4-4.5,4.9-1.6,3.7-.2,3.9,1.4,3.9,2.5,3.4,3,2,2.6.7,3.2.3,2.7-.4,5.1-1.8,3.5-3.2,2.9-3.4,2.5-3.7,2-3.9,1.4-4,1-4.3.5-4.3v-4.4l-.5-4.5,6-1,10.5-3,8.2-3.8,3.8-2.4,3.6-2.8,3.5-3.2,3-3.7,2.6-4.2,2.2-4.8.6-1.9.2-4.1-.4-2.1-1.8-3.7-1.4-1.6-1.7-1.2-4.1-1.6-4.1-.1-2,.4-3.7,1.8-1.6,1.4-1.3,1.7-2.3,4.6-1.6,2.3-2,1.9-4.7,3.2-6.8,2.8-4.1,1-7.9,1-6-.2-11.7-8.5-6.7-6.2-3.4-3.9-3-4.2-2.5-4.5-2-4.7-1.6-4.9-1-5-.5-5.2.2-7.5-.3-2-.7-1.9-2.5-3.4-3.5-2.4-4.2-1.4-2.3-.1-2,.3-3.7,1.8-2.9,3-2,3.9-.5,2.2-.5,5.9v5.8l.6,5.9,1.1,5.8,1.7,5.6,2.1,5.5,2.6,5.4,3,5,3.5,4.9,3.8,4.5,4.2,4.2,4.6,3.9Z" fill="#e8f0fd"/>
    <path id="路径_3971" data-name="路径 3971" d="M569.9,315.9l-6.9-3-6.8-2.4-6.7-1.7-6.8-1-5.5-.4h-5.5l-5.4.4-5.4.9-5.4,1.3-5.3,1.6-5.2,2.1-5.1,2.5-5.1,3-5.1,3.4-3,3.3-1.7,3.7-.1,3.9,1.3,3.8,2.5,3.5,1.4,1.2,1.6.8,2.6.7,3.2.3,1.7-.2,5-2.1,4.3-2.9,4.4-2.4,4.4-2,4.5-1.5,4.6-1.1,4.7-.7,4.6-.1,4.7.3,4.6.7,4.6,1.2,4.5,1.8,6.8,3.3,2.3.5h2.3l2.4-.6,2.1-1,1.8-1.5,1.5-1.8,1.9-4.1.6-1.9-.1-3.9-1.5-3.6-2.6-3Z" fill="#e8f0fd"/>
    <path id="路径_3972" data-name="路径 3972" d="M497.5,374.9l-5.6-2-5.5-1.3-5.4-.9-5.5-.2-5.2.2-6.3.9-2.1,1.1-4.4,1.1-5.4,2.3-4.9,2.6-4.5,3.2-4.1,3.5-3.8,3.7-3.4,4-4.6,6.4-3.9,6.4L414.8,421l-8,17.3-7,13.8-6.3,9.9-3.6,4.4-3.9,4-8,6.4-4,2.3-4.1,1.9-4.4,1.4-4.4,1-4.5.6-4.6.1-11.4-1.4-4.3.8-1.9.8-3.3,2.5-1.3,1.5-1.4,3.5.6,4.4,1.8,4,2.8,3.3,1.8,1.3,1.9.9,5.5,1.2,10,.5,5.9-.3,5.8-.7,5.7-1.2,5.7-1.7,11-4.6,10.5-6,5.6-5,5.2-5.4,4.6-5.7,4.3-6,7.5-12.6,4.9-9.8,8-18,1-3.1,3.1-6.4,3.7-6,4.1-5.7,4.7-5.3,1.3,4,1.8,4,2.3,4.1,2.8,3.8,3.4,3.8,4.2,3.8,4.5,3.3,5.5,3.3,7.5,3.9,3.5.5,2.2-.3,2.1-.7,2.1-1.2,3.4-3.5,1.3-2.1.8-4.4-.5-4.1-.7-1.9-2.5-3.1-1.7-1.2-6.8-3-3.6-2.2-2.7-2.1-2.5-2.5-1.7-2.4-1.2-2.3-.8-2.4-.6-4,6.7.7,6.7,1.5,4.3,2,4.1,2.2,7.8,5.2,8.9,7.5,3.8,1.4,2,.2,4-.6,3.6-1.9,1.5-1.5,1.3-1.8.9-1.8.8-4-.7-4-1.9-3.5-7.1-6.5-10.5-7.6-5.4-3.1-5.4-2.5-5.4-1.9Z" fill="#e8f0fd"/>
    <path id="路径_3973" data-name="路径 3973" d="M469.7,456.2l-4.3.6-3.6,1.8-2.6,2.8-1,1.8-.7,4.1.1,2.2,1.3,3.9,1,1.8,2.8,2.7,1.8.9,1.9.5,7,.9,4.4,1,3.8,1.3,6.9,3.3,6.6,4.8,2.9,2.8,2.4,2.8,4,6.5,1.5,1.6,1.8,1.3,2,1,2.2.6,4.3.2,3.6-1.1,1.8-1.3,2.9-3,1.7-3.6.5-3.9-.5-1.9-.8-1.9-6.8-9-3.2-3.7-7.1-6.8-7.3-5.3-4.1-2.4-4.6-2.1-5.1-2-5.2-1.5-5.9-1.1Z" fill="#e8f0fd"/>
    <path id="路径_3974" data-name="路径 3974" d="M434.1,698.8l-.3,7.6-.7,7.3-1.2,7.1-1.7,7-2.2,6.9-2.5,6.6-2.9,6.4-3.4,6.2-3.8,5.9-4,5.7-4.5,5.3-4.8,5.1-5.1,4.8-5.3,4.5-5.7,4-5.9,3.8-6.2,3.4-6.4,2.9-6.6,2.5L354,804l-7,1.7-7.1,1.2-7.3.7-7.6.3-7.5-.3-7.4-.7-7.1-1.2-7-1.7-6.9-2.1-6.6-2.6-6.4-2.9L270,793l-6-3.8-5.7-4-5.3-4.5-5.1-4.8-4.8-5.1-4.4-5.3-4.1-5.7-3.8-5.9-3.3-6.2-3-6.4-2.5-6.6-2.2-6.9-1.6-7-1.3-7.1-.7-7.3-.3-7.6.3-7.5.7-7.4,1.2-7.1,1.7-7,2.2-6.9,2.5-6.6,3-6.4,3.3-6.1,3.8-6,4.1-5.6,4.4-5.4,4.8-5.1,5.1-4.8,5.3-4.4,5.7-4.1,5.9-3.8,6.2-3.3,6.4-3,6.6-2.5,6.9-2.2,7-1.6,7.1-1.3,7.4-.7,7.5-.3,7.5.3,7.4.8L347,592l7,1.7,6.8,2.1,6.7,2.6,6.4,2.9,6.1,3.4,6,3.7,5.6,4.1,5.4,4.4,5.1,4.8,4.8,5.1,4.4,5.4,4.1,5.6,3.7,6,3.4,6.2,3,6.3L428,663l2.2,6.8,1.6,7,1.3,7.1.7,7.4Z" fill="#d4e7ff"/>
    <path id="路径_3975" data-name="路径 3975" d="M434.1,698.8l-.3,7.6-.7,7.3-1.3,7.1-1.6,7-2.2,6.9-2.5,6.6-3,6.4-3.4,6.1-3.7,6-4.1,5.6-4.4,5.4-4.8,5.1-5.1,4.8-5.4,4.4-5.6,4.1-6,3.7-6.1,3.4-6.4,3-6.7,2.5L354,804l-7,1.6-7.1,1.3-7.4.7-7.5.3-7.8-.1-7.8-1,7.8-1.5,7.6-2,7.3-2.5,7.1-3,6.9-3.5,6.6-4,6.3-4.4,5.9-4.8,5.7-5.2,5.2-5.6,4.8-5.9,4.5-6.3,4-6.5,3.5-6.9,3-7.1,2.6-7.4,2-7.5,1.5-7.8.9-7.9.3-8.2-.3-8.2-.9-7.9-1.4-7.7-2-7.5-2.5-7.4-2.9-7.1-3.5-6.9-3.9-6.5-4.4-6.3-4.8-6-5.2-5.5-5.6-5.3-5.9-4.8-6.3-4.4-6.6-4-6.9-3.5-7.2-3-7.4-2.6-7.8-1.9-8-1.5,7.8-1,7.8-.1,7.5.2,7.4.8,7.1,1.2,7,1.7,6.9,2.1,6.6,2.6,6.4,3,6.1,3.3,6,3.8,5.6,4.1,5.4,4.4,5.1,4.8,4.8,5.1,4.4,5.4,4.1,5.6,3.8,6,3.3,6.1,3,6.4,2.5,6.6,2.2,6.9,1.7,7,1.2,7.1.7,7.4Z" fill="#e8f0fd"/>
    <path id="路径_3976" data-name="路径 3976" d="M903.8,554.1H916l2.2-.3,1.9-.7,1.6-1.2,1.4-1.6,1.1-1.8.7-2.2-.3-2.1-.7-1.9-1.2-1.7-1.6-1.4-1.8-1-2.2-.8H904.9V525.2l-.3-2.2-.7-1.9-1.2-1.6-1.6-1.4-1.8-1.1-2.2-.7-2.2.3-1.8.7-1.7,1.2L890,520l-1,1.9-.8,2.2v12.2H876l-2.2.3-1.9.7-1.6,1.2-1.4,1.6-1.1,1.8-.7,2.2.3,2.2.7,1.8,1.2,1.7,1.6,1.4,1.8,1,2.2.8h12.2v12.3l.3,2.1.7,1.9,1.2,1.7,1.6,1.3,1.8,1.1,2.2.8,2.2-.3,1.8-.8,1.7-1.2,1.4-1.5,1-1.9.8-2.1Z" fill="#141749"/>
    <path id="路径_3977" data-name="路径 3977" d="M160.3,587.5l-1.4-2-1.5-1.4-1.9-.9-2-.5h-2.1l-2.2.4-10,4.4-4.5-11.1-1.4-2-1.5-1.4-1.8-.9-2-.5-2.2-.1-2.2.4-2,1.4-1.4,1.5-.9,1.9-.5,2-.1,2.1.4,2.3,4.5,11.1-11.2,4.4-2,1.4-1.4,1.6-.9,1.8-.4,2-.1,2.1.4,2.3,1.3,2.1,1.6,1.5,1.8,1.1,2,.6,2.1-.1,2.3-.8,11.2-4.4,4.4,11.1,1.3,2,1.6,1.4,1.8.9,2,.5h2.2l2.2-.3,2.1-1.4,1.6-1.6,1.1-1.8.5-2-.1-2.1-.7-2.3-4.5-11.1,11.2-4.5,1.5-.8,1.3-1.5.9-1.9.4-2.3-.1-2.3Z" fill="#141749"/>
    <path id="路径_3978" data-name="路径 3978" d="M75.7,796.8H11.1l-2.5.2-2.1.6-1.9.9-1.5,1.3-1.3,1.6-1,1.8-.6,2.2L0,807.9l.2,2.5.6,2.1,1,1.9L3.1,816l1.5,1.2,1.9,1,2.1.6,2.5.2H75.7l2.5-.2,2.1-.6,1.9-1,1.6-1.3,1.2-1.5,1-1.9.6-2.1.2-2.5-.2-2.5-.6-2.2-1-1.8-1.2-1.6-1.6-1.3-1.9-.9-2.1-.6Z" fill="#141749"/>
    <path id="路径_3979" data-name="路径 3979" d="M1012.9,796.8H913.8l-2.5.2-2.1.6-1.9.9-1.6,1.3-1.2,1.6-1,1.8-.6,2.2-.2,2.5.2,2.5.6,2.1,1,1.9,1.2,1.6,1.6,1.2,1.9,1,2.1.6,2.5.2h99.1l2.5-.2,2.1-.6,1.9-1,1.5-1.3,1.3-1.5,1-1.9.6-2.1.2-2.5-.2-2.1-1.3-3.5-2.5-2.9-3.2-1.9Z" fill="#141749"/>
    <path id="路径_3980" data-name="路径 3980" d="M790.3,457.3l-3.1-6.3-1.9-6.7-.4-3.5-.5-15.6-.7-12-1.3-11.7-1.8-11.6-2.3-11.5-2.7-11.2L772.3,356l-3.7-11-4.2-10.8-4.7-10.6-5.1-10.4L748.9,303l-6-10-6.5-9.6-7-9.5-7.4-9.2-7.9-9-8.4-8.7-9-8.7-9.3-8-9.5-7.6-9.8-7.1-10-6.6-10.4-6.1-10.5-5.7-10.7-5.1-10.9-4.7-11-4.2-11.3-3.7L582,176.4l-11.5-2.7L559,171.5l-11.7-1.6-11.7-1.2-11.7-.7-11.8-.1-11.8.4-11.8.9-11.7,1.4-11.7,1.9-11.6,2.4-11.6,3-11.5,3.5-11.3,4-11.2,4.5-11,5.1-11,5.7-10.8,6.2-14.2.8L346.8,210l-9.2,2.5-9.1,3-12.4,4.9-3.3,2h-2.7l-5.1-1.1-8-.9-8-.4-8,.2-8,.7-8,1.3-7.8,1.8-7.7,2.3-7.6,2.8-7.4,3.3-7.1,3.7-6.8,4.1-6.6,4.6-6.3,5-5.8,5.4-5.4,5.7-12.6,16-3.2,3.6-3.4,3-8.1,5.8-7.1,5.5-6.5,5.9-6,6.4-5.5,6.7-4.9,7-4.4,7.3-3.8,7.6-3.2,7.7-2.6,8-1.5,6.1-2,12.3-.4,12.4.3,6,1.6,11.8,1.9,7.7,2.5,7.6,3.2,7.3,5.7,10.5,3.4,4.9,6.7,8.8,4,4.3,4.3,4.2,8.7,6.6,7.8,4.3,9.3,3.8,9.5,3.2,9.6,2.6,9.7,2.1,9.9,1.6,9.9.9,10,.4,10-.1,1.9,11,2.4,10.9,2.8,10.8,3.3,10.6,3.7,10.5,4.1,10.3,4.6,10.2,5,9.9,5.4,9.8,5.8,9.5-7.3,2.6-7,3-6.8,3.4-6.5,3.8-6.3,4.2-6,4.6-5.6,4.9-5.4,5.2-5.1,5.6-4.6,5.8-4.4,6.2-3.9,6.4-3.5,6.7-3.1,6.9-2.7,7.1-2.3,7.3-1.7,7.5-1.3,7.6-.8,7.8-.3,8.1.3,7.5.7,7.3,1.1,7.2,1.5,7,2,7,2.4,6.7,2.8,6.6,3.1,6.3,3.6,6.2,3.8,5.9,4.2,5.7,4.6,5.5,4.8,5.2,5.2,4.9,5.4,4.6,5.7,4.4H168.1l-2.5.2-2.2.6-1.8.9-1.6,1.3-1.3,1.6-.9,1.8-.6,2.2-.3,2.5.3,2.5.6,2.1.9,1.8L160,816l1.6,1.3,1.8.9,2.2.6,2.5.2H805.8l2.6-.2,2.1-.6,1.8-1,1.6-1.3,1.3-1.5.9-1.9.6-2.1.3-2.5-.3-2.5-.6-2.2-.9-1.8-1.3-1.6-1.6-1.3-1.8-.9-2.1-.6-2.6-.3H683.4V720l.2-2.2,1.5-4,2.7-3.1,3.6-2.1,4.3-.8h36.7l5.5-.3,5.3-.8,5.1-1.3,4.9-1.8,4.7-2.3,4.4-2.7,4-3,3.9-3.5,3.4-3.8,3.1-4.1,2.6-4.4,2.3-4.7,1.8-4.9,1.3-5,.8-5.3.3-5.6V581.9l.8-4.2,2.1-3.6,3.2-2.7,1.9-.9,4.3-.8h11.1l6.6-.8,3.2-1,5.9-3,2.6-2,2.4-2.3,2.1-2.5,3.3-6,1.1-3.1.7-3.2.2-3.4-.2-3.3-.5-3.3-2.3-6.4-1.7-3.1Zm-543.2,1.1-10.8-.1-10.8-.8-10.7-1.3-8.8-1.9-8.7-2.2-8.5-2.8-8.5-3.1-4.7-2.7-4.9-3.7-5.1-4.6-5.3-5.7-3.5-5-3.2-5.2-2.8-5.6-2.4-5.7-1.9-5.8-1.5-6-1-6-.5-6,.1-5.9.6-6.7,1.1-6.6,1.6-6.6,2.1-6.5,2.6-6.3,3.1-6.1,3.6-5.9,4-5.8,4.5-5.4,4.8-5.1,5.3-4.7,15-11.1,5.2-4.5,3.9-4.2,8.3-11.4,4.2-5,4.5-4.8,4.7-4.4,5.1-4,5.4-3.7,5.5-3.4,5.8-2.9,6-2.6,6.1-2.3,6.3-1.8,6.3-1.3,6.5-1,6.5-.6,6.5-.1,14.1,1.2,5.7,1,6.6.1L322,244l5.3-2.6h1.1l3.4-1.6,3.3-.7,7.1-2.5,7.2-2,7.2-1.5,7.4-1,7.4-.6h7.3l7.4.4,7.3.9,7.3,1.4,7.2,1.9,17.4,6.4,6.8,3.2,7.6,2.4,9.6,1.8,8.2.4,7.3.9,7.2,1.4,7.1,1.9,6.9,2.4,6.8,3,6.6,3.3,6.3,3.7,6.1,4.2,5.8,4.6,5.5,5,5.1,5.3,4.8,5.6,4.4,6,3.9,6.2,3.4,6.5,3,6.8,1.1,4.4,3.4,7.6,4.4,7.3,14,19.5,4.8,9.1,1.9,4.9,2,6.6,1.4,6.9.8,7,.2,5.3-.8,10.6-.9,5.4-1.8,6.6-2.4,6.4-3,6.4-3.6,6.1-3.9,5.7-4.5,5.4-4.8,5-5.1,4.5-5.4,4-15,8.7-3.8,2.6-6.2,5.4-8.5,8.2-8.1,6.7-8.4,4.7-10.1,4.6-3.7,3-3,3.9-1.3,2.8-1.1,5.2.2,5.4.8,6,1.3,6.2,1.8,6.1,3.3,9.2,3.9,9.2H450.8l-.6-.2-3.9-4.2-8-10.5-8.1-9.4-8-8.3-7.9-7.5-8-6.5-8-5.8-8-4.9-8-4.2-8-3.6-8.1-2.8-8.4-2.1-33.6-5.4-7.6-1.9-4.9-1.6-4.6-2.1-4.3-2.5-11.1-8-4.5-2.7-6.4-2.8-5.5-1.6-2-.3-8.3-.1-3.6.3-2,.8-1.3-1.8-2.7-1.2Zm-20,240.4.2-6.9.7-6.6,1.1-6.6,1.6-6.4,1.9-6.3,2.4-6.1,2.7-5.8,3.2-5.7,3.5-5.5,3.8-5.2,4.2-4.9,4.5-4.7,4.8-4.3,5.1-4.1,5.4-3.7,5.6-3.3,5.9-3,6.1-2.6,6.4-2.2,6.6-1.8,7.4-1.2,7.4-.7,7.4-.3h4.5l7.6.6,7.5,1.2,7.1,1.8,7,2.3,6.8,2.8,6.5,3.3,6.2,3.8,5.9,4.2,5.6,4.7,5.1,5,4.8,5.5,4.5,5.8L408,648l3.5,6.5,3.1,6.7,2.5,7.1,2.1,7.3,1.4,7.4.9,7.8.3,8-.3,8-1,7.8-1.5,7.6-2.1,7.3-2.7,7.2-3.2,6.9-3.7,6.5-4.2,6.3-4.7,5.9-5.1,5.5-5.5,5.2-5.9,4.7-6.2,4.3-6.6,3.7-6.9,3.3-7.2,2.7-5.9,1.8-6,1.4-6.2,1.1-6.4.6-6.6.2-8-.3-7.8-1-7.5-1.6-7.3-2.2-7.1-2.7-6.8-3.3-6.5-3.8-6.2-4.2-5.8-4.8-5.5-5.1-5-5.5-4.6-5.9-4.2-6.3-3.7-6.5-3.2-6.9-2.7-7.2-2.1-7.3-1.6-7.6-.9-7.8Zm167,98,5.9-4.6,5.7-5,5.2-5.3,9.8-11.3,4.6-6.1,3,15.7,1,8.3.4,8.3ZM814.8,544.1l-.8,1.4-.7.7-2.5,1.1-12.7.1-4.8.4-4.4.9-4.2,1.5-4,2-3.7,2.5-3.3,2.9-2.9,3.3-2.5,3.6-2,4-1.5,4.3-.9,4.4-.3,4.7v72.4l-.3,4.1-.8,4-1.3,3.8-1.8,3.7-2.2,3.3-2.8,3.1-3.1,2.8-3.3,2.2-3.7,1.8-3.8,1.3-4,.8-4.1.3H695.7l-4.8.3-4.4.9-4.3,1.5-4,2-3.6,2.5-3.3,2.9-2.9,3.3-2.5,3.7-2,4-1.5,4.2-.9,4.5-.3,4.7v75.7H451.9l-.8-10.5-1.4-10.4-1.8-10.1-2.4-10.1-2.7-10.1-3.2-10,2-7,1.5-7.1,1.1-7.1.7-7.2.3-7.3-.3-8.2-.8-8-1.3-7.8-1.8-7.7-2.4-7.5-2.8-7.3-3.2-7-3.7-6.8-4.1-6.6-4.5-6.2-4.9-5.9-5.2-5.7-5.6-5.3-6-4.9-6.2-4.5-6.5-4.2-6.8-3.7-7.1-3.3-7.3-2.8-7.6-2.4-7.7-1.9-7.9-1.3-8.1-.9-8.4-.3-6.1.2-6.1,1-6.2-9.2-5.6-9.3-5.2-9.5-4.8-9.7-4.3-9.8-3.8-10-3.5-10.2-3-10.3-2.6-10.5-2.2-10.6,4,1.7,3.7,2.2,3.4,2.8,5,3.4,6.6,3.8,4.9,2.3,5,1.9,7.6,2.2,7.7,1.7,23.4,3.6,15.5,3.3,5.9,1.9,5.9,2.4,5.9,2.8,5.8,3.4,5.9,3.9,5.8,4.6,6.4,5.5,6.5,6.4,6.5,7,6.6,7.9,11.5,14.9,4.7,4.3,2.7,1.8,4.8,1.6,6.2.6h39.1l6.4-.5,2.6-.8,2.6-1.2,2.9-1.9,1.6-1.8,1.5-2.2,1.2-2.5,1.1-5.3-.6-5.3-.7-2.7-6.1-13.8-2.6-7-1.4-4.8-1.8-9.1,4.9-1.9,4.5-2.2,4.2-2.6,8-6.3L530,493.8l9.3-6.1,13.9-8.1,5.4-3.8,5.2-4.2,5-4.4,4.8-4.9,4.4-5.1,4.1-5.3,3.7-5.6,3.3-5.9,2.9-6.1,2.4-6.2,1.9-6.4,1.4-6.7,1.5-10,.7-10-.1-6.5-2.4-13.6-2-7.7-2.5-7.6-3.1-7.4-3.6-7.1-5.1-8.5L570.8,322l-2.1-4.3-2.2-6.1-5.1-11-3.2-6.3-3.5-6-8.2-11.5-9.4-10.6-5.1-4.9-11-9-11.8-7.8-6.3-3.5L490,235.2l-13.6-4.5-6.9-1.7-7.1-1.3-7.2-.8h-3.3l-10.4-1.6-4.1-1.4-5.5-2.6L421.4,217l-10.6-3.5,9.5-4.1,9.5-3.6,9.6-3.3,9.7-2.8,9.7-2.4,12.3-2.5,12.3-1.8,12.3-1.2,12.4-.5h12.4l12.3.7,12.2,1.3,12.2,1.9,12,2.5,11.9,3,11.8,3.7,11.6,4.3,11.4,4.9L627,219l10.9,6,10.7,6.6,8.2,5.7,8.1,6,7.9,6.4,7.6,6.7,14.7,14.2,6.9,7.2,6.4,7.5,6.1,7.6,5.7,7.8,6.7,10.2,6.1,10.4,5.6,10.7,5,10.9,4.4,11.2,3.8,11.4L755,377l2.7,11.8,2.1,11.9,1.5,12,.9,12.2.5,17.8.8,5.4,1.3,5.3,1.7,5.2,2.2,5,2.7,4.8,42.3,69,1.3,3Z" fill="#141749"/>
    <path id="路径_3981" data-name="路径 3981" d="M307.2,744.5l-2.4-.2-2.4-.7-2.1-1-2-1.5-33.6-33.9-1.7-3.7-.3-4.2,1-4.3,2.3-4,3.4-2.3,4-1,4.3.4,4.1,1.6,2,1.3,24.5,24.5,57.9-57.9,3.4-2.3,4-1,4.3.4,4.1,1.6,2,1.3,1.6,1.7,1.2,1.8.6,1.9.3,4.1-1.3,4.3-2.4,4-66.8,66.8-1.7.2-5,1.5Z" fill="#141749"/>
  </g>
</svg>
