<svg xmlns="http://www.w3.org/2000/svg" width="1022.4" height="779.9" viewBox="0 0 1022.4 779.9">
  <g id="Technical" transform="translate(-1.5 -113.3)">
    <path id="路径_4087" data-name="路径 4087" d="M907.2,377.6l-9.6,6.2-19.7,11.5-15,8.2-45.8,23.2L802,434.6l-14.9,8.3-19.3,11.9-9.3,6.5L745,472.1l-6.5,6-12.2,12.7-5.6,6.8-5.3,6.9-4.9,7.2-4.5,7.5-4,7.5-3.5,7.7-3.1,7.8-2.5,8-1.9,8.1-1.3,8.1-.7,8.2v6.6l.4,6.6.9,6.6,1.3,6.6,1.9,6.7,2.5,7.4,3,7,3.4,6.8,3.8,6.6,8.6,12.8,20.9,27.8,6.7,9.5,8.1,13.2,3.5,6.9,2.9,7.1,2.4,7.2,2,7.2,1.4,7.5,1,7.5.5,7.5.1,7.6-.4,7.7-.8,7.5-1.2,7.6-1.6,7.4-2.1,7.5-2.5,7.2-2.9,7.2-3.2,6.9-3.7,6.8-4,6.6-4.4,6.3-4.7,6-5.2,5.8-6.8,6.6-7.3,6.1-7.6,5.5-8,5.1-8.4,4.6-8.5,4-8.9,3.5-9,3-9.3,2.5-9.3,1.9-9.4,1.4-9.5.9-9.6.3-9.5-.3-9.4-.8-9.3-1.3-9.5-2-9.2-2.4-9.1-2.9-8.9-3.4-8.7-3.9-8.4-4.3-8.3-4.8-8-5.1-7.8-5.5-7.5-5.9-7.2-6.1-7-6.5-6.7-6.9-12.4-14.3-5.8-7.5-7.1-10.5-6.7-10.9-18.8-33.3-13.1-21.8-12-17.3-10.8-13.2-5.9-6.2-6.3-5.8-6.6-5.5-6.9-5-7.2-4.4-7.5-3.9-5.8-2.5-6-2.1-6.2-1.7-6.3-1.3-12.2-.8-5.9.3-5.9.6-7.9,1.3-7.8,1.9-7.7,2.4-7.7,2.8L259.7,679,214,701.9l-11.6,5.3-11.6,4.7-7.8,2.7-7.9,2.2-7.9,1.8-12.1,1.5-6.1.2-6.2-.2-6.2-.8-6.1-1.2-6-1.6-5.8-2.1-5.7-2.6-5.5-2.8-5.3-3.3L97,702.1l-9.5-8.2-8.6-9.3-7.5-10.2-6.2-11-2.6-5.8-4.2-11.8-1.5-6.1L55.5,632l-.8-7.7-.4-7.8.2-7.8.6-7.7,1.1-7.7,1.6-7.7,2-7.6,2.4-7.5,2.9-7.3,3.2-7.2,3.6-7.1,4-6.8,4.4-6.6,4.6-6.4,5-6.2,7.1-7.7,7.6-7.3,7.9-6.9,8.3-6.4,8.6-5.9,9-5.5,9.2-5.1,9.5-4.7,9.7-4.2,9.8-3.8,10-3.4,24-6.6,28-6.5,23.4-6,18.5-5.8,9.1-3.6,8.8-4.1,8.6-4.5,6.2-3.8,5.9-4.2,5.6-4.4,5.3-4.7,5-5.1,4.6-5.5,4.2-5.7,3.9-6.2,2.8-6.1,2.4-6.1,1.8-6.2,1.4-6.3,1.3-8.5.6-8.6v-8.7l-.4-8.8-2.1-17.9-2.3-13.5-8-40.9-2.7-18.1-.9-8.9-.5-8.9.1-8.8.6-8.7.8-6.4,1.3-6.4,1.6-6.3,2.2-6.3,2.3-5.7,2.8-5.4,3.1-5.2,3.6-5,7.9-9.2,9.2-8.2,6.7-4.8,7-4.2,7.4-3.8,7.7-3.2,7.8-2.6,8-2.1,6.1-1.1,6.1-.7,12.3-.4,7.6.4,7.6.9,7.5,1.4,7.4,1.8,7.3,2.3,7.2,2.6,7.1,3.1,6.9,3.4L511,133l12.8,8.6,12,9.9,10.7,10.9,7,8.8,4.8,8.3,3.5,7.4,19.3,46.7,8.1,17.2,5.5,9.6,4.8,6.2,4,3.2,1.9.9,2,.4,5.2-.4,3.2-.9,8.6-3.7,12.9-7.8,8.4-5.9,17.2-13.3L709.2,200l9.6-7.4,11.5-7.1,11.6-6.6,12-6.3,12.1-5.8,12.3-5.3,12.5-4.6,9.6-3.1,9.5-2.7,9.7-2.2,9.7-1.7,9.7-1.4,9.8-.7,9.9-.2,9.9.3,7.9.9,7.9,1.3,7.8,1.8,7.8,2.3,7.6,2.7,7.4,3.1,7.3,3.5,7,3.9,6.8,4.3,6.5,4.7,6.1,5,5.8,5.3,5.4,5.7,5,6,4.5,6.3,4.1,6.6,3.5,6.9,3,7.1,2.4,7.4,1.8,7.7,1.1,6.5.6,6.5.2,6.4-.3,6.4-.8,6.4-1.5,7.9-2.1,7.8-2.6,7.7-3.3,7.7-3.7,7.5-4.2,7.3L963,323l-5.1,7.1-5.4,6.8-11.7,12.9-6.4,6.1-8.8,7.8-9.1,7.2Z" fill="#f8f8f8"/>
    <path id="路径_4088" data-name="路径 4088" d="M403.8,858.8l1.1-3.2,2.3-2.3,1.5-.7,1.8-.4h9.9v-9.9l.1-1.8.7-1.6,1-1.4,1.4-1.1,1.6-.7,1.8-.2,1.7.2,1.6.7,1.4,1.1,1.1,1.4.6,1.6.2,1.8v9.9h9.9l1.7.3,1.5.7,1.3,1.1,1,1.3.6,1.5.2,1.7-.2,1.8-.6,1.5-2.3,2.4-1.5.6-1.7.3h-9.9v10l-.3,1.7-.7,1.5-1.1,1.3-1.3,1-1.5.6-1.7.2-1.8-.2-1.5-.6-1.3-1-1.1-1.3-.6-1.5-.3-1.7v-10h-9.9l-2.6-.4-2.2-1.4-.8-1-1-2.4Z" fill="#e8f0fd"/>
    <path id="路径_4089" data-name="路径 4089" d="M99.9,201.3l-.2,1.5-1.1,2.5-1.5,1.5L95.3,208l-2.1.8-2.1.3H79v12.1l-.6,2.7-2.1,2.8-1.9,1.2-2,.7-2.2.3-2.2-.3-1.8-.8-1.5-1.3-1.2-1.6-.7-2.1-.3-2.7V208H50.3l-2.7-.6-2.8-2.1-1.2-1.9-.7-2-.3-2.2.3-2.2.8-1.8,1.2-1.5,1.7-1.2,2.1-.7,2.7-.3H63.5V179.3l.6-2.7,2.2-2.8,1.8-1.2,2.1-.7,2.1-.3,1.5.2,2.5,1.1,1.5,1.4,1.2,1.9.8,2,.3,2.2v12.1H92.2l2.7.6,2.8,2.2,1.2,1.8.7,2.1Z" fill="#cedbf0"/>
    <path id="路径_4090" data-name="路径 4090" d="M682.5,178.2V763l-.2,4-1.5,7.5-2.9,7.2-4.3,6.4-2.7,3-2.9,2.6-6.5,4.3-7.1,3-3.8.9-7.8.8H221l-7.8-.8-7.4-2.2L199,796l-6.1-4.9-2.6-3-4.3-6.4-3-7.2-1.4-7.5-.2-588.8.2-3.9,1.4-7.6,3-7.2,4.3-6.4,2.6-3,3-2.6,6.4-4.3,7.2-3,3.7-.9,7.8-.7H643.9l4,.2,3.7.6,3.7,1,3.5,1.4,4.4,2.4,4.1,2.9,3.8,3.4,3.2,3.9,2.8,4.2,2.3,4.6,2.3,7.3Z" fill="#d4e7ff"/>
    <g id="组_3624" data-name="组 3624">
      <path id="路径_4091" data-name="路径 4091" d="M682.5,385.3,682.3,767l-.6,3.8-2.2,7.4-1.6,3.5-4.3,6.4-2.7,3-2.9,2.6-3.1,2.3-6.9,3.7-3.6,1.3-7.6,1.5-32.6.2-9.1-7-8.7-7.4-8.5-7.8-8.1-8.3-7.9-8.7-7.6-9.1-7.3-9.6-7.1-10.1-6.7-10.6-6.9-11.7-6.5-12.3-6.1-13-5.8-13.6-5.5-14.3-5-14.9-4.8-15.8-4.3-16.4-3.5-15.6-3.2-16.3-2.8-17-2.4-17.7L484.3,527l-1.5-19.3-1.2-20-.7-21v-4.5l1.2-8.8,1.1-4.2,2.1-5.5,2.6-5.2,3.2-4.9,3.7-4.6,4.1-4.2,4.6-3.8,5-3.2,5.3-2.8,5.7-2.3,16.7-5.3,16.6-4.8,16.4-4.1,16.4-3.6,16.2-3,16.5-2.4,16.3-1.9,16.1-1.4,16-.7,15.8-.3Z" fill="rgba(206,219,240,0.3)"/>
    </g>
    <path id="路径_4092" data-name="路径 4092" d="M572.3,303.8H291.5l-2.5-.3-2.1-.6-1.8-.9-1.6-1.3-1.2-1.5-1-1.8-.6-2.2-.2-2.4.2-2.5.6-2.1,1-1.9,1.2-1.5,1.6-1.3,1.8-.9,2.1-.6,2.5-.2H572.3l2.5.2,2.1.6,1.9.9,1.5,1.3,1.3,1.5.9,1.9.6,2.1.2,2.5-.2,2.4-.6,2.2-.9,1.8-1.3,1.5-1.5,1.3-1.8.9-2.2.6Z" fill="#fff"/>
    <path id="路径_4093" data-name="路径 4093" d="M572.3,375.4H291.5l-2.5-.3-2.1-.6-1.8-.9-1.6-1.3-1.2-1.5-1-1.9-.6-2.1-.2-2.4.2-2.5.6-2.1,1-1.9,1.2-1.5,1.6-1.3,1.8-.9,2.1-.6,2.5-.2H572.3l2.5.2,2.1.6,1.9.9,1.5,1.3,1.3,1.5.9,1.9.6,2.1.2,2.5-.2,2.4-.6,2.1-.9,1.9-1.3,1.5-1.5,1.3-1.8.9-2.2.6Z" fill="#fff"/>
    <path id="路径_4094" data-name="路径 4094" d="M572.3,445.8H291.5l-2.5-.2-2.1-.6-1.8-.9-1.6-1.3-1.2-1.6-1-1.8-.6-2.1-.2-2.5.2-2.4.6-2.2,1-1.8,1.2-1.5,1.6-1.3,1.8-.9,2.1-.6,2.5-.3H572.3l2.5.3,2.1.6,1.9.9,1.5,1.3,1.3,1.5.9,1.8.6,2.2.2,2.4-.2,2.5-.6,2.1-.9,1.9-1.3,1.5-1.5,1.3-1.8.9-2.2.6Z" fill="#fff"/>
    <path id="路径_4095" data-name="路径 4095" d="M572.3,517.4H291.5l-2.5-.2-2.1-.6-1.8-.9-1.6-1.3-1.2-1.6-1-1.8-.6-2.1-.2-2.5.2-2.5.6-2.1,1-1.8,1.2-1.6,1.6-1.2,1.8-1,2.1-.5,2.5-.3H572.3l2.5.3,2.1.5,1.9,1,1.5,1.2,1.3,1.6.9,1.8.6,2.1.2,2.5-.2,2.5-.6,2.1-.9,1.8-1.3,1.6-1.5,1.3-1.8.9-2.2.6Z" fill="#fff"/>
    <path id="路径_4096" data-name="路径 4096" d="M572.3,589H291.5l-2.5-.2-2.1-.6-1.8-1-1.6-1.2-1.2-1.6-1-1.8-.6-2.1-.2-2.5.2-2.5.6-2.1,1-1.8,1.2-1.6,1.6-1.2,1.8-1,2.1-.6,2.5-.2H572.3l2.5.2,2.1.6,1.9,1,1.5,1.2,1.3,1.6.9,1.8.6,2.1.2,2.5-.2,2.5-.6,2.1-.9,1.8-1.3,1.6-1.5,1.2-1.8,1-2.2.6Z" fill="#fff"/>
    <path id="路径_4097" data-name="路径 4097" d="M572.3,659.5H291.5l-2.5-.2-2.1-.6-1.8-1-1.6-1.2-1.2-1.6-1-1.8-.6-2.1-.2-2.5.2-2.5.6-2.1,1-1.8,1.2-1.6,1.6-1.3,1.8-.9,2.1-.6,2.5-.2H572.3l2.5.2,2.1.6,1.9.9,1.5,1.3,1.3,1.6.9,1.8.6,2.1.2,2.5-.2,2.5-.6,2.1-.9,1.8-1.3,1.6-1.5,1.2-1.8,1-2.2.6Z" fill="#fff"/>
    <path id="路径_4098" data-name="路径 4098" d="M852.1,467.9l-.2,16.4-.7,16.1-1,15.7-1.4,15.3-1.9,15-2.2,15.2L842,576.3l-3,14.4-3.4,13.9-3.8,13.5-4.2,13.5L823,644.7l-4.9,12.6-5.2,12.1-5.6,11.7-6,11.6-6.4,11.1-6.7,10.6-7,10-7.3,9.6-7.8,9.3-8,8.7-8.4,8.2-8.6,7.7-9,7.1-7.7,5.6-8,5.2-8.2,4.8-8.3,4.4-8.6,4.1-8.8,3.6-10.4-4.6-10-5-9.6-5.4-9.2-5.8-8.9-6.1-8.5-6.6-8.2-6.9-7.9-7.3-8.5-8.8-8.1-9.3-7.7-9.8-7.4-10.4-7-10.9-6.7-11.6-6.2-12.1-5.6-12-5.2-12.6-4.9-13.2L538,630.6l-4.2-14.5L530,601l-3.5-15.8-3.3-17.7-2.8-18.6-2.3-19.4-1.9-20.3-1.4-21.3-.8-22.2.2-3.3.6-3.1,1-3,1.3-2.8,1.8-2.6,2.1-2.3,2.4-2,2.8-1.6,3.2-1.3,16.5-5.2,16.4-4.5,16.2-3.9,16-3.4,15.9-2.8,15.8-2.2,15.6-1.7,15.4-1.2,15.4-.6,15.2-.1,15.5.4,15.4,1,15.2,1.5,15.2,2.1,15.1,2.6,15,3.1,15,3.7,14.9,4.3,14.9,4.8,14.9,5.4,4.7,2.9,3.9,4.3,2.9,5.1.9,2.8Z" fill="#fff"/>
    <path id="路径_4099" data-name="路径 4099" d="M787.1,607.7l3.9-14,3.4-14.6,3.1-15.1,2.7-15.6,2.1-15.6,1.7-16,1.1-16.5.7-17-14.9-4.7-15-4-15.1-3.4-15.3-2.8-15.4-2.2-15.4-1.5-15.5-.9-16.7-.3V608.8H787.1Z" fill="#fff"/>
    <path id="路径_4100" data-name="路径 4100" d="M683.6,607.7V753.1l6.9-4,6.9-4.3L704,740l6.6-5.1,6.3-5.6,7.6-7.3,7.3-7.9,7-8.5,6.9-9.1,6.3-9.3,6-9.9,5.8-10.5,5.4-11.1,5-11.2,4.6-11.7,4.3-12.3,4-12.8Z" fill="#fff"/>
    <path id="路径_4101" data-name="路径 4101" d="M852.1,467.9l-.2,16.4-.7,16.1-1,15.7-1.4,15.3-1.9,15-2.2,15.2L842,576.3l-3,14.4-3.4,13.9-3.8,13.5-4.2,13.5L823,644.7l-4.9,12.6-5.2,12.1-5.6,11.7-6,11.6-6.4,11.1-6.7,10.6-7,10-7.3,9.6-7.8,9.3-8,8.7-8.4,8.2-8.6,7.7-9,7.1-7.7,5.6-8,5.2-8.2,4.8-8.3,4.4-8.6,4.1-8.8,3.6-10.4-4.6-10-5-9.6-5.4-9.2-5.8-8.9-6.1-8.5-6.6-8.2-6.9-7.9-7.3-8.5-8.8-8.1-9.3-7.7-9.8-7.4-10.4-7-10.9-6.7-11.6-6.2-12.1-5.6-12-5.2-12.6-4.9-13.2L538,630.6l-4.2-14.5L530,601l-3.5-15.8-3.3-17.7-2.8-18.6-2.3-19.4-1.9-20.3-1.4-21.3-.8-22.2.2-3.3.6-3.1,1-3,1.3-2.8,1.8-2.6,2.1-2.3,2.4-2,2.8-1.6,3.2-1.3,16.5-5.2,16.4-4.5,16.2-3.9,16-3.4,15.9-2.8,15.8-2.2,15.6-1.7,15.4-1.2,15.4-.6,15.2-.1,15.5.4,15.4,1,15.2,1.5,15.2,2.1,15.1,2.6,15,3.1,15,3.7,14.9,4.3,14.9,4.8,14.9,5.4,4.7,2.9,3.9,4.3,2.9,5.1.9,2.8Z" fill="#fff"/>
    <path id="路径_4102" data-name="路径 4102" d="M683.6,462.4l-14.8.3-15,.9-15.2,1.5-15.5,2.1-15.2,2.6L592.3,473l-15.8,3.7-16.3,4.4,1.1,18.3,1.4,17.4,1.9,16.5,2.1,15.7,2.6,15.8,3,15.1,3.2,14.3,3.5,13.5H683.6Z" fill="#e8f0fd"/>
    <path id="路径_4103" data-name="路径 4103" d="M683.6,607.7V753.1l6.9-4,6.9-4.3L704,740l6.6-5.1,6.3-5.6,7.6-7.3,7.3-7.9,7-8.5,6.9-9.1,6.3-9.3,6-9.9,5.8-10.5,5.4-11.1,5-11.2,4.6-11.7,4.3-12.3,4-12.8Z" fill="#e8f0fd"/>
    <path id="路径_4104" data-name="路径 4104" d="M889.5,223.4h12.1v12.1l.3,2.1.8,1.9,1.1,1.6,1.6,1.4,1.8,1,2.2.8,2.1-.3,1.9-.7,1.6-1.2,1.4-1.5,1-1.9.8-2.1V224.5h12.1l2.1-.3,1.9-.7,1.6-1.2,1.4-1.6,1-1.8.8-2.1-.3-2.2-.7-1.8-1.2-1.7-1.6-1.3-1.8-1.1-2.1-.8H919.3V195.8l-.3-2.1-.8-1.9-1.1-1.6-1.6-1.4-1.8-1-2.1-.8-2.2.3-1.8.7-1.7,1.2-1.4,1.6-1,1.8-.8,2.1v12.2H890.6l-2.1.2-1.9.8-1.6,1.2-1.4,1.5-1,1.8-.8,2.2.3,2.2.7,2,1.2,1.8,1.6,1.5,2.5,1.1Z" fill="#141749"/>
    <path id="路径_4105" data-name="路径 4105" d="M23.9,734.4l4.4,11,1.3,2,1.6,1.4,1.8.9,1.9.4,2.1.1,2.3-.4,2.1-1.3,1.5-1.6,1.1-1.8.5-2-.1-2-5.1-13.3,11-4.4,2-1.4,1.4-1.5.9-1.8.4-2,.1-2.1-.4-2.2-1.3-2L51.8,709l-1.8-.9-2-.4-2.1-.1-2.2.4-11,4.4-4.4-11-1.4-2L25.4,698l-1.8-.9-2-.4-2.1-.1-2.2.4-2,1.3-1.4,1.6-.9,1.7-.4,2-.1,2.1.4,2.3,4.4,11-11,4.4-2,1.3-1.4,1.6L2,728l-.4,2-.1,2.1.4,2.3,1.3,2L4.8,738l1.8,1,1.9.6,2.1-.1,2.3-.7Z" fill="#141749"/>
    <path id="路径_4106" data-name="路径 4106" d="M777.2,791.7H727.6l8.3-5.7,8.1-6.1,7.9-6.6,7.7-6.9,7.5-7.4,7.3-7.9,8.2-9.7,7.9-10.2,7.6-10.9,7.3-11.5,6.9-12.1,6.4-12.2,6-12.7,5.6-13.3,5.3-13.8,4.9-14.5,4.4-14.4,3.9-14.8,3.5-15.4,3.2-15.8,2.6-16.5,2.2-16.2,1.7-16.6,1.2-17.1.7-17.5.3-18-.3-4.4-.9-4.3-1.5-4.2-2.1-4-2.4-3.6-2.9-3.4-3.3-2.9-3.6-2.3-3.9-1.8-14.4-5.3-14.4-4.9-14.6-4.3-14.8-3.8-14.8-3.2-15-2.7-15.1-2.2-15.1-1.7-15.2-1.1-15.3-.5V178.2l-.3-5-.7-5-1.2-4.7-1.6-4.7-2.1-4.5-2.6-4.2-2.9-4-3.4-3.8L676,139l-4-3-4.2-2.5-4.5-2.1-4.6-1.7-4.8-1.2-4.9-.7-5.1-.2H221l-5.1.2-4.9.7-4.7,1.2-4.7,1.7-4.5,2.1-4.2,2.5-4,3-3.8,3.3-3.4,3.8-2.9,4-2.5,4.2-2.1,4.5-1.7,4.7-1.2,4.7-.7,5-.3,5V791.7H21.7l-2.5.2-2.1.6-1.8.9-1.6,1.3-1.3,1.5-.9,1.9-.6,2.1-.2,2.5.2,2.4.6,2.1.9,1.9,1.3,1.5,1.6,1.3,1.8.9,2.1.6,2.5.3H248.6l2.4-.3,2.2-.6,1.8-.9,1.5-1.3,1.3-1.5.9-1.9.6-2.1.3-2.4-.3-2.5-.6-2.1-.9-1.9-1.3-1.5-1.5-1.3-1.9-.9-2.1-.6-2.4-.2H192.4V178.2l.2-3.8.7-3.6,1.2-3.6,1.6-3.3,2.1-3.1,2.5-2.9,2.9-2.5,3.1-2,3.3-1.7,3.6-1.2,3.6-.7,3.8-.2H643.9l3.8.2,3.7.7,3.5,1.2,3.4,1.6,3.1,2.1,2.8,2.5,2.5,2.9,2.1,3.1,1.6,3.3,1.2,3.6.7,3.6.3,3.8V407.3l-16.5.7-16.5,1.5V237.7l-.3-2.5-.6-2.1-.9-1.8-1.3-1.6-1.5-1.3-1.8-.9-2.2-.6-2.4-.2H236.4l-2.4.2-2.2.6-1.8.9-1.5,1.3-1.3,1.6-.9,1.8-.6,2.1-.3,2.5V703.6l.3,2.4.6,2.2.9,1.8,1.3,1.5,1.5,1.3,1.8.9,2.2.6,2.4.3H563.5l5.9,9,6.1,8.7,6.6,8.4,6.9,8.1,7.2,7.8,7.6,7.5,7.9,7.1,8.2,6.8,8.6,6.5,8.8,6H306.9l-2.5.3-2.1.6-1.8.9-1.6,1.3-1.2,1.5-1,1.9-.5,2.1-.3,2.5.3,2.4.5,2.1,1,1.9,1.2,1.5,1.6,1.3,1.8.9,2.1.6,2.5.3H776.1l2.5-.3,2.1-.6,1.8-.9,1.6-1.3,1.2-1.5,1-1.9.6-2.1.3-3.9-.3-1.5-.7-1.6-2.2-2.7-3.2-1.9-3.6-.8ZM247.4,692.5V248.7H616.5V412.8l-18.6,3-18.4,3.6-18.3,4.1L543,428.3l-18,5.4-3.5,1.3-3.2,1.7-3,1.9-5.1,4.7-4,5.8-1.5,3.2-2.1,6.9-.7,7.5.7,20.4,1.2,19.5,1.6,18.8,2,18,2.4,17.2,2.8,16.5,3.2,15.9,3.8,16.5,4.3,15.8,4.6,15.1,4.9,14.3,5.3,13.6,5.7,13,5.9,12.3H247.4ZM525,465.7l.3-2.3.7-2.3,1.2-2.2,1.5-1.9,1.9-1.5,2.1-.8,15.1-4.6,15.2-4.2,15-3.7,15.1-3.2,15.1-2.7,15.2-2.3,15.2-1.8,15.1-1.3,15.2-.8,15.1-.2,15.1.2,15.2.8,15.1,1.4,15.1,1.9,15.1,2.5,14.9,3,15,3.6,15,4.3,14.9,4.9,17.1,6.3,1.7,1.2,1.2,1.7,1.5,3.9.2,2.3-.2,16.1-.6,15.7-1,15.3-1.4,14.9-1.8,14.6-2.2,14.7-2.5,14.3-2.9,13.8-3.2,13.4-3.6,13-4,13.1-4.3,12.5-4.7,12.1-4.9,11.7-5.3,11.1-5.7,11.2-6,10.6-6.3,10.1-6.5,9.5-6.8,9.1-7.3,9-7.6,8.3-7.7,7.8-8.1,7.4-8.2,6.8-8.7,6.4-8.9,5.8-9.2,5.3-9.3,4.8-9.7,4.3-10.5-5-10.1-5.4-9.7-5.9-9.4-6.3-8.9-6.8-8.7-7.3-8.3-7.8-8-8.3-7.6-8.9-7.3-9.4-7.1-9.9L580.2,699l-6.3-11.2L567.8,676l-5.4-11.8-5.1-12.4-4.8-13L548,625.1l-4.1-14.5-3.8-15.1-3.4-16-3-16.7-2.6-17.6-2.2-18.5-1.8-19.4L525.8,487Z" fill="#141749"/>
    <path id="路径_4107" data-name="路径 4107" d="M1012.9,791.7H857.6l-2.5.2-2.1.6-1.8.9-1.6,1.3-1.3,1.5-.9,1.9-.6,2.1-.2,2.5.2,2.4.6,2.1.9,1.9,1.3,1.5,1.6,1.3,1.8.9,2.1.6,2.5.3h155.3l2.5-.3,2.1-.6,1.8-.9,1.6-1.3,1.2-1.5,1-1.9.5-2.1.3-2.4-.2-1.9-1.4-3.4-2.6-3-3.2-2Z" fill="#141749"/>
    <path id="路径_4108" data-name="路径 4108" d="M456.7,753.1l-.2,3.3-.7,3.2-1,2.9-1.4,2.9-3.8,4.8-4.9,3.8-2.8,1.4-3,1.1-3.1.6-3.3.2-3.4-.2-3.1-.6-3-1.1-2.8-1.4-2.5-1.7-4.4-4.4-1.7-2.5-1.5-2.9-1-2.9-.6-3.2-.3-3.3.3-3.3.6-3.2,1-2.9,3.2-5.4,2-2.3,2.4-2.1,5.3-3.1,3-1.1,3.1-.6,3.4-.2,3.3.2,3.1.6,3,1.1,2.8,1.4,4.9,3.8,3.8,4.9,1.4,2.8,1,2.9.7,3.2Z" fill="#141749"/>
    <path id="路径_4109" data-name="路径 4109" d="M496.4,200.2l3.8-.6,3.2-2,2.4-2.8.9-1.7.7-3.9-.7-3.8-.9-1.7-2.4-2.9-3.2-1.9-3.8-.7H427l-3.8.7-3.3,1.9-2.4,2.9-1.3,3.5v4l1.3,3.6,2.4,2.8,3.3,2,3.8.6Z" fill="#141749"/>
    <path id="路径_4110" data-name="路径 4110" d="M381.8,200.2l3.9-.6,3.2-2,2.4-2.8.8-1.7.7-3.9-.7-3.8-1.9-3.3-2.8-2.4-1.7-.8-3.9-.7-15.2.2-3.6,1.3-1.5,1.1-2.4,2.9-1.3,3.5-.2,2,.2,2,1.3,3.6,1.1,1.5,2.8,2.4,3.6,1.4,2,.1Z" fill="#141749"/>
    <path id="路径_4111" data-name="路径 4111" d="M805.8,483.3l-14.9-4.7-15-4-15.1-3.4-15.3-2.8-15.4-2.2-15.4-1.5-15.5-.9-16.7-.3V608.8H786l4.8-16.3,4.1-16.9,3.5-17.3,2.9-17.9,2.2-18.5,1.5-19Z" fill="#141749"/>
    <path id="路径_4112" data-name="路径 4112" d="M683.6,607.7H580.1l4,13.6,4.4,12.9,4.7,12.1,5,11.4,5.2,10.7,5.5,10.1,5.8,9.5,6,8.9,6.7,9,7.1,8.4,7.3,7.8,7.7,7.3,8,6.7,8.4,6.2,8.6,5.6,9.1,5.2Z" fill="#141749"/>
  </g>
</svg>
